<svg width="76" height="25" viewBox="0 0 76 25" fill="none" xmlns="http://www.w3.org/2000/svg">
<g opacity="0.4">
<path fill-rule="evenodd" clip-rule="evenodd" d="M22.5 12C22.5 11.8011 22.421 11.6103 22.2803 11.4696C22.1397 11.329 21.9489 11.25 21.75 11.25H4.0605L8.781 6.53097C8.92183 6.39014 9.00095 6.19913 9.00095 5.99997C9.00095 5.80081 8.92183 5.6098 8.781 5.46897C8.64017 5.32814 8.44916 5.24902 8.25 5.24902C8.05084 5.24902 7.85983 5.32814 7.719 5.46897L1.719 11.469C1.64915 11.5386 1.59374 11.6214 1.55593 11.7125C1.51812 11.8036 1.49866 11.9013 1.49866 12C1.49866 12.0986 1.51812 12.1963 1.55593 12.2874C1.59374 12.3785 1.64915 12.4613 1.719 12.531L7.719 18.531C7.85983 18.6718 8.05084 18.7509 8.25 18.7509C8.44916 18.7509 8.64017 18.6718 8.781 18.531C8.92183 18.3901 9.00095 18.1991 9.00095 18C9.00095 17.8008 8.92183 17.6098 8.781 17.469L4.0605 12.75H21.75C21.9489 12.75 22.1397 12.671 22.2803 12.5303C22.421 12.3896 22.5 12.1989 22.5 12Z" fill="#333333"/>
<path d="M35.9014 6.15039H39.7246C41.3828 6.15039 42.6338 6.39062 43.4775 6.87109C44.3213 7.35156 44.7432 8.18066 44.7432 9.3584C44.7432 9.85059 44.6553 10.2959 44.4795 10.6943C44.3096 11.0869 44.0605 11.4121 43.7324 11.6699C43.4043 11.9219 43 12.0918 42.5195 12.1797V12.2676C43.0176 12.3555 43.46 12.5107 43.8467 12.7334C44.2393 12.9561 44.5469 13.2754 44.7695 13.6914C44.998 14.1074 45.1123 14.6465 45.1123 15.3086C45.1123 16.0938 44.9248 16.7617 44.5498 17.3125C44.1807 17.8633 43.6504 18.2822 42.959 18.5693C42.2734 18.8564 41.459 19 40.5156 19H35.9014V6.15039ZM38.0107 11.4502H40.0322C40.9873 11.4502 41.6494 11.2949 42.0186 10.9844C42.3877 10.6738 42.5723 10.2197 42.5723 9.62207C42.5723 9.0127 42.3525 8.57324 41.9131 8.30371C41.4795 8.03418 40.7881 7.89941 39.8389 7.89941H38.0107V11.4502ZM38.0107 13.1553V17.2334H40.2344C41.2188 17.2334 41.9102 17.043 42.3086 16.6621C42.707 16.2812 42.9062 15.7656 42.9062 15.1152C42.9062 14.7168 42.8154 14.3711 42.6338 14.0781C42.458 13.7852 42.168 13.5596 41.7637 13.4014C41.3594 13.2373 40.8145 13.1553 40.1289 13.1553H38.0107ZM51.3701 9.08594C52.6006 9.08594 53.5293 9.3584 54.1562 9.90332C54.7891 10.4482 55.1055 11.2979 55.1055 12.4521V19H53.6377L53.2422 17.6201H53.1719C52.8965 17.9717 52.6123 18.2617 52.3193 18.4902C52.0264 18.7188 51.6865 18.8887 51.2998 19C50.9189 19.1172 50.4531 19.1758 49.9023 19.1758C49.3223 19.1758 48.8037 19.0703 48.3467 18.8594C47.8896 18.6426 47.5293 18.3145 47.2656 17.875C47.002 17.4355 46.8701 16.8789 46.8701 16.2051C46.8701 15.2031 47.2422 14.4502 47.9863 13.9463C48.7363 13.4424 49.8672 13.1641 51.3789 13.1113L53.0664 13.0498V12.54C53.0664 11.8662 52.9082 11.3857 52.5918 11.0986C52.2812 10.8115 51.8418 10.668 51.2734 10.668C50.7871 10.668 50.3154 10.7383 49.8584 10.8789C49.4014 11.0195 48.9561 11.1924 48.5225 11.3975L47.8545 9.93848C48.3291 9.68652 48.8682 9.48145 49.4717 9.32324C50.0811 9.16504 50.7139 9.08594 51.3701 9.08594ZM53.0576 14.3506L51.8008 14.3945C50.7695 14.4297 50.0459 14.6055 49.6299 14.9219C49.2139 15.2383 49.0059 15.6719 49.0059 16.2227C49.0059 16.7031 49.1494 17.0547 49.4365 17.2773C49.7236 17.4941 50.1016 17.6025 50.5703 17.6025C51.2852 17.6025 51.877 17.4004 52.3457 16.9961C52.8203 16.5859 53.0576 15.9854 53.0576 15.1943V14.3506ZM61.917 19.1758C60.9971 19.1758 60.2002 18.9971 59.5264 18.6396C58.8525 18.2822 58.334 17.7344 57.9707 16.9961C57.6074 16.2578 57.4258 15.3203 57.4258 14.1836C57.4258 13 57.625 12.0332 58.0234 11.2832C58.4219 10.5332 58.9727 9.97949 59.6758 9.62207C60.3848 9.26465 61.1963 9.08594 62.1104 9.08594C62.6904 9.08594 63.2148 9.14453 63.6836 9.26172C64.1582 9.37305 64.5596 9.51074 64.8877 9.6748L64.2725 11.3271C63.915 11.1807 63.5488 11.0576 63.1738 10.958C62.7988 10.8584 62.4385 10.8086 62.0928 10.8086C61.5244 10.8086 61.0498 10.9346 60.6689 11.1865C60.2939 11.4385 60.0127 11.8135 59.8252 12.3115C59.6436 12.8096 59.5527 13.4277 59.5527 14.166C59.5527 14.8809 59.6465 15.4844 59.834 15.9766C60.0215 16.4629 60.2998 16.832 60.6689 17.084C61.0381 17.3301 61.4922 17.4531 62.0312 17.4531C62.5645 17.4531 63.042 17.3887 63.4639 17.2598C63.8857 17.1309 64.2842 16.9639 64.6592 16.7588V18.5518C64.29 18.7627 63.8945 18.918 63.4727 19.0176C63.0508 19.123 62.5322 19.1758 61.917 19.1758ZM69.0098 5.32422V11.9336C69.0098 12.2324 68.998 12.5605 68.9746 12.918C68.9512 13.2695 68.9277 13.6006 68.9043 13.9111H68.9482C69.1006 13.7061 69.2822 13.4658 69.4932 13.1904C69.71 12.915 69.915 12.6748 70.1084 12.4697L73.0791 9.27051H75.4521L71.5586 13.4541L75.707 19H73.2812L70.1699 14.7285L69.0098 15.7217V19H66.9443V5.32422H69.0098Z" fill="#333333"/>
</g>
</svg>
