<svg width="303" height="304" viewBox="0 0 303 304" fill="none" xmlns="http://www.w3.org/2000/svg">
<rect x="0.5" width="302" height="304" rx="12" fill="white"/>
<rect x="1" y="0.5" width="301" height="303" rx="11.5" stroke="#333333" stroke-opacity="0.2"/>
<path d="M41.2734 40.1797C41.2734 41.4661 41.0339 42.5417 40.5547 43.4062C40.0755 44.2656 39.3802 44.9141 38.4688 45.3516C37.5573 45.7839 36.4583 46 35.1719 46H32V34.5781H35.5156C36.6979 34.5781 37.7188 34.7917 38.5781 35.2188C39.4375 35.6406 40.1016 36.2682 40.5703 37.1016C41.0391 37.9297 41.2734 38.9557 41.2734 40.1797ZM39.3203 40.2344C39.3203 39.2969 39.1719 38.526 38.875 37.9219C38.5833 37.3177 38.151 36.8698 37.5781 36.5781C37.0104 36.2812 36.3099 36.1328 35.4766 36.1328H33.875V44.4297H35.2031C36.5833 44.4297 37.6146 44.0781 38.2969 43.375C38.9792 42.6719 39.3203 41.625 39.3203 40.2344ZM46.9922 37.1875C47.763 37.1875 48.4245 37.3464 48.9766 37.6641C49.5286 37.9818 49.9531 38.4323 50.25 39.0156C50.5469 39.599 50.6953 40.2969 50.6953 41.1094V42.0938H44.9219C44.9427 42.9323 45.1667 43.5781 45.5938 44.0312C46.026 44.4844 46.6302 44.7109 47.4062 44.7109C47.9583 44.7109 48.4531 44.6589 48.8906 44.5547C49.3333 44.4453 49.7891 44.2865 50.2578 44.0781V45.5703C49.8255 45.7734 49.3854 45.9219 48.9375 46.0156C48.4896 46.1094 47.9531 46.1562 47.3281 46.1562C46.4792 46.1562 45.7318 45.9922 45.0859 45.6641C44.4453 45.3307 43.9427 44.8359 43.5781 44.1797C43.2188 43.5234 43.0391 42.7083 43.0391 41.7344C43.0391 40.7656 43.2031 39.9427 43.5312 39.2656C43.8594 38.5885 44.3203 38.0729 44.9141 37.7188C45.5078 37.3646 46.2005 37.1875 46.9922 37.1875ZM46.9922 38.5703C46.4141 38.5703 45.9453 38.7578 45.5859 39.1328C45.2318 39.5078 45.0234 40.0573 44.9609 40.7812H48.8984C48.8932 40.349 48.8203 39.9661 48.6797 39.6328C48.5443 39.2995 48.3359 39.0391 48.0547 38.8516C47.7786 38.6641 47.4245 38.5703 46.9922 38.5703ZM56.25 46.1562C55.4323 46.1562 54.724 45.9974 54.125 45.6797C53.526 45.362 53.0651 44.875 52.7422 44.2188C52.4193 43.5625 52.2578 42.7292 52.2578 41.7188C52.2578 40.6667 52.4349 39.8073 52.7891 39.1406C53.1432 38.474 53.6328 37.9818 54.2578 37.6641C54.888 37.3464 55.6094 37.1875 56.4219 37.1875C56.9375 37.1875 57.4036 37.2396 57.8203 37.3438C58.2422 37.4427 58.599 37.5651 58.8906 37.7109L58.3438 39.1797C58.026 39.0495 57.7005 38.9401 57.3672 38.8516C57.0339 38.763 56.7135 38.7188 56.4062 38.7188C55.901 38.7188 55.4792 38.8307 55.1406 39.0547C54.8073 39.2786 54.5573 39.612 54.3906 40.0547C54.2292 40.4974 54.1484 41.0469 54.1484 41.7031C54.1484 42.3385 54.2318 42.875 54.3984 43.3125C54.5651 43.7448 54.8125 44.0729 55.1406 44.2969C55.4688 44.5156 55.8724 44.625 56.3516 44.625C56.8255 44.625 57.25 44.5677 57.625 44.4531C58 44.3385 58.3542 44.1901 58.6875 44.0078V45.6016C58.3594 45.7891 58.0078 45.9271 57.6328 46.0156C57.2578 46.1094 56.7969 46.1562 56.25 46.1562ZM64.1641 37.1875C64.9349 37.1875 65.5964 37.3464 66.1484 37.6641C66.7005 37.9818 67.125 38.4323 67.4219 39.0156C67.7188 39.599 67.8672 40.2969 67.8672 41.1094V42.0938H62.0938C62.1146 42.9323 62.3385 43.5781 62.7656 44.0312C63.1979 44.4844 63.8021 44.7109 64.5781 44.7109C65.1302 44.7109 65.625 44.6589 66.0625 44.5547C66.5052 44.4453 66.9609 44.2865 67.4297 44.0781V45.5703C66.9974 45.7734 66.5573 45.9219 66.1094 46.0156C65.6615 46.1094 65.125 46.1562 64.5 46.1562C63.651 46.1562 62.9036 45.9922 62.2578 45.6641C61.6172 45.3307 61.1146 44.8359 60.75 44.1797C60.3906 43.5234 60.2109 42.7083 60.2109 41.7344C60.2109 40.7656 60.375 39.9427 60.7031 39.2656C61.0312 38.5885 61.4922 38.0729 62.0859 37.7188C62.6797 37.3646 63.3724 37.1875 64.1641 37.1875ZM64.1641 38.5703C63.5859 38.5703 63.1172 38.7578 62.7578 39.1328C62.4036 39.5078 62.1953 40.0573 62.1328 40.7812H66.0703C66.0651 40.349 65.9922 39.9661 65.8516 39.6328C65.7161 39.2995 65.5078 39.0391 65.2266 38.8516C64.9505 38.6641 64.5964 38.5703 64.1641 38.5703ZM79.7109 37.1875C80.6797 37.1875 81.4089 37.4375 81.8984 37.9375C82.3932 38.4375 82.6406 39.2396 82.6406 40.3438V46H80.8047V40.6719C80.8047 40.0156 80.6771 39.5208 80.4219 39.1875C80.1667 38.8542 79.7786 38.6875 79.2578 38.6875C78.5286 38.6875 78.0026 38.9219 77.6797 39.3906C77.362 39.8542 77.2031 40.5286 77.2031 41.4141V46H75.3672V40.6719C75.3672 40.2344 75.3099 39.8698 75.1953 39.5781C75.0859 39.2812 74.9167 39.0599 74.6875 38.9141C74.4583 38.763 74.1693 38.6875 73.8203 38.6875C73.3151 38.6875 72.9115 38.8021 72.6094 39.0312C72.3125 39.2604 72.099 39.599 71.9688 40.0469C71.8385 40.4896 71.7734 41.0339 71.7734 41.6797V46H69.9375V37.3516H71.3672L71.625 38.5156H71.7266C71.9036 38.2135 72.1224 37.9661 72.3828 37.7734C72.6484 37.5755 72.9427 37.4297 73.2656 37.3359C73.5885 37.237 73.9245 37.1875 74.2734 37.1875C74.9193 37.1875 75.4635 37.3021 75.9062 37.5312C76.349 37.7552 76.6797 38.099 76.8984 38.5625H77.0391C77.3099 38.0938 77.6875 37.7474 78.1719 37.5234C78.6562 37.2995 79.1693 37.1875 79.7109 37.1875ZM87.0391 33.8438V36.7734C87.0391 37.112 87.0286 37.4453 87.0078 37.7734C86.9922 38.0964 86.9766 38.349 86.9609 38.5312H87.0391C87.2734 38.1562 87.599 37.8411 88.0156 37.5859C88.4375 37.3255 88.9766 37.1953 89.6328 37.1953C90.6589 37.1953 91.4844 37.5729 92.1094 38.3281C92.7344 39.0781 93.0469 40.1901 93.0469 41.6641C93.0469 42.6432 92.9036 43.4661 92.6172 44.1328C92.3307 44.7995 91.9271 45.3047 91.4062 45.6484C90.8906 45.987 90.2839 46.1562 89.5859 46.1562C88.9297 46.1562 88.3984 46.0365 87.9922 45.7969C87.5911 45.5521 87.276 45.2682 87.0469 44.9453H86.9141L86.5781 46H85.2031V33.8438H87.0391ZM89.1484 38.6875C88.6276 38.6875 88.2135 38.7917 87.9062 39C87.6042 39.2083 87.3854 39.5208 87.25 39.9375C87.1146 40.349 87.0443 40.8724 87.0391 41.5078V41.6719C87.0391 42.6354 87.1901 43.3724 87.4922 43.8828C87.7995 44.3932 88.3568 44.6484 89.1641 44.6484C89.8047 44.6484 90.2969 44.3906 90.6406 43.875C90.9844 43.3542 91.1562 42.6094 91.1562 41.6406C91.1562 40.6615 90.9844 39.9245 90.6406 39.4297C90.3021 38.9349 89.8047 38.6875 89.1484 38.6875ZM98.6172 37.1875C99.388 37.1875 100.049 37.3464 100.602 37.6641C101.154 37.9818 101.578 38.4323 101.875 39.0156C102.172 39.599 102.32 40.2969 102.32 41.1094V42.0938H96.5469C96.5677 42.9323 96.7917 43.5781 97.2188 44.0312C97.651 44.4844 98.2552 44.7109 99.0312 44.7109C99.5833 44.7109 100.078 44.6589 100.516 44.5547C100.958 44.4453 101.414 44.2865 101.883 44.0781V45.5703C101.451 45.7734 101.01 45.9219 100.562 46.0156C100.115 46.1094 99.5781 46.1562 98.9531 46.1562C98.1042 46.1562 97.3568 45.9922 96.7109 45.6641C96.0703 45.3307 95.5677 44.8359 95.2031 44.1797C94.8438 43.5234 94.6641 42.7083 94.6641 41.7344C94.6641 40.7656 94.8281 39.9427 95.1562 39.2656C95.4844 38.5885 95.9453 38.0729 96.5391 37.7188C97.1328 37.3646 97.8255 37.1875 98.6172 37.1875ZM98.6172 38.5703C98.0391 38.5703 97.5703 38.7578 97.2109 39.1328C96.8568 39.5078 96.6484 40.0573 96.5859 40.7812H100.523C100.518 40.349 100.445 39.9661 100.305 39.6328C100.169 39.2995 99.9609 39.0391 99.6797 38.8516C99.4036 38.6641 99.0495 38.5703 98.6172 38.5703ZM108.773 37.1875C108.919 37.1875 109.078 37.1953 109.25 37.2109C109.422 37.2266 109.57 37.2474 109.695 37.2734L109.523 38.9922C109.414 38.9609 109.279 38.9375 109.117 38.9219C108.961 38.9062 108.82 38.8984 108.695 38.8984C108.367 38.8984 108.055 38.9531 107.758 39.0625C107.461 39.1667 107.198 39.3281 106.969 39.5469C106.74 39.7604 106.56 40.0286 106.43 40.3516C106.299 40.6745 106.234 41.0495 106.234 41.4766V46H104.391V37.3516H105.828L106.078 38.875H106.164C106.336 38.5677 106.549 38.2865 106.805 38.0312C107.06 37.776 107.352 37.5729 107.68 37.4219C108.013 37.2656 108.378 37.1875 108.773 37.1875Z" fill="#333333"/>
<path d="M122.953 46H115.219V44.6172L118.18 41.6172C118.753 41.0339 119.224 40.5312 119.594 40.1094C119.964 39.6823 120.237 39.2786 120.414 38.8984C120.596 38.5182 120.688 38.1042 120.688 37.6562C120.688 37.1042 120.529 36.6875 120.211 36.4062C119.893 36.1198 119.474 35.9766 118.953 35.9766C118.458 35.9766 118 36.0755 117.578 36.2734C117.161 36.4661 116.729 36.7422 116.281 37.1016L115.273 35.8906C115.591 35.6198 115.93 35.3724 116.289 35.1484C116.654 34.9245 117.06 34.7474 117.508 34.6172C117.956 34.4818 118.466 34.4141 119.039 34.4141C119.763 34.4141 120.388 34.5443 120.914 34.8047C121.44 35.0599 121.844 35.4167 122.125 35.875C122.411 36.3333 122.555 36.8672 122.555 37.4766C122.555 38.0911 122.432 38.6589 122.188 39.1797C121.943 39.7005 121.594 40.2161 121.141 40.7266C120.688 41.2318 120.148 41.7812 119.523 42.375L117.547 44.3047V44.3906H122.953V46ZM132.109 40.2812C132.109 41.2031 132.036 42.0286 131.891 42.7578C131.75 43.4818 131.526 44.0964 131.219 44.6016C130.911 45.1068 130.51 45.4922 130.016 45.7578C129.521 46.0234 128.922 46.1562 128.219 46.1562C127.339 46.1562 126.612 45.9245 126.039 45.4609C125.466 44.9922 125.042 44.3203 124.766 43.4453C124.49 42.5651 124.352 41.5104 124.352 40.2812C124.352 39.0521 124.477 38 124.727 37.125C124.982 36.2448 125.393 35.5703 125.961 35.1016C126.529 34.6328 127.281 34.3984 128.219 34.3984C129.104 34.3984 129.833 34.6328 130.406 35.1016C130.984 35.5651 131.411 36.237 131.688 37.1172C131.969 37.9922 132.109 39.0469 132.109 40.2812ZM126.203 40.2812C126.203 41.2448 126.266 42.0495 126.391 42.6953C126.521 43.3411 126.734 43.8255 127.031 44.1484C127.328 44.4661 127.724 44.625 128.219 44.625C128.714 44.625 129.109 44.4661 129.406 44.1484C129.703 43.8307 129.917 43.349 130.047 42.7031C130.182 42.0573 130.25 41.25 130.25 40.2812C130.25 39.3229 130.185 38.5208 130.055 37.875C129.924 37.2292 129.711 36.7448 129.414 36.4219C129.117 36.0938 128.719 35.9297 128.219 35.9297C127.719 35.9297 127.32 36.0938 127.023 36.4219C126.732 36.7448 126.521 37.2292 126.391 37.875C126.266 38.5208 126.203 39.3229 126.203 40.2812ZM141.266 46H133.531V44.6172L136.492 41.6172C137.065 41.0339 137.536 40.5312 137.906 40.1094C138.276 39.6823 138.549 39.2786 138.727 38.8984C138.909 38.5182 139 38.1042 139 37.6562C139 37.1042 138.841 36.6875 138.523 36.4062C138.206 36.1198 137.786 35.9766 137.266 35.9766C136.771 35.9766 136.312 36.0755 135.891 36.2734C135.474 36.4661 135.042 36.7422 134.594 37.1016L133.586 35.8906C133.904 35.6198 134.242 35.3724 134.602 35.1484C134.966 34.9245 135.372 34.7474 135.82 34.6172C136.268 34.4818 136.779 34.4141 137.352 34.4141C138.076 34.4141 138.701 34.5443 139.227 34.8047C139.753 35.0599 140.156 35.4167 140.438 35.875C140.724 36.3333 140.867 36.8672 140.867 37.4766C140.867 38.0911 140.745 38.6589 140.5 39.1797C140.255 39.7005 139.906 40.2161 139.453 40.7266C139 41.2318 138.461 41.7812 137.836 42.375L135.859 44.3047V44.3906H141.266V46ZM150.422 46H142.688V44.6172L145.648 41.6172C146.221 41.0339 146.693 40.5312 147.062 40.1094C147.432 39.6823 147.706 39.2786 147.883 38.8984C148.065 38.5182 148.156 38.1042 148.156 37.6562C148.156 37.1042 147.997 36.6875 147.68 36.4062C147.362 36.1198 146.943 35.9766 146.422 35.9766C145.927 35.9766 145.469 36.0755 145.047 36.2734C144.63 36.4661 144.198 36.7422 143.75 37.1016L142.742 35.8906C143.06 35.6198 143.398 35.3724 143.758 35.1484C144.122 34.9245 144.529 34.7474 144.977 34.6172C145.424 34.4818 145.935 34.4141 146.508 34.4141C147.232 34.4141 147.857 34.5443 148.383 34.8047C148.909 35.0599 149.312 35.4167 149.594 35.875C149.88 36.3333 150.023 36.8672 150.023 37.4766C150.023 38.0911 149.901 38.6589 149.656 39.1797C149.411 39.7005 149.062 40.2161 148.609 40.7266C148.156 41.2318 147.617 41.7812 146.992 42.375L145.016 44.3047V44.3906H150.422V46Z" fill="#333333"/>
<g opacity="0.6">
<path d="M231.583 40.6665L236.333 45.3332C236.666 45.6665 237.166 45.6665 237.5 45.3332C237.833 44.9998 237.833 44.4998 237.5 44.1665L233.416 39.9998L237.5 35.8332C237.833 35.4998 237.833 34.9998 237.5 34.6665C237.333 34.4998 237.166 34.4165 236.916 34.4165C236.666 34.4165 236.5 34.4998 236.333 34.6665L231.583 39.3332C231.25 39.7498 231.25 40.2498 231.583 40.6665C231.583 40.5832 231.583 40.5832 231.583 40.6665Z" fill="#333333"/>
<path d="M265.45 39.4084L260.733 34.7001C260.656 34.622 260.564 34.56 260.462 34.5177C260.361 34.4754 260.252 34.4536 260.142 34.4536C260.032 34.4536 259.923 34.4754 259.821 34.5177C259.72 34.56 259.627 34.622 259.55 34.7001C259.395 34.8562 259.308 35.0675 259.308 35.2876C259.308 35.5078 259.395 35.719 259.55 35.8751L263.675 40.0418L259.55 44.1668C259.395 44.3229 259.308 44.5341 259.308 44.7543C259.308 44.9744 259.395 45.1856 259.55 45.3418C259.627 45.4205 259.719 45.4832 259.821 45.5261C259.922 45.569 260.031 45.5913 260.142 45.5918C260.252 45.5913 260.361 45.569 260.463 45.5261C260.564 45.4832 260.656 45.4205 260.733 45.3418L265.45 40.6334C265.535 40.5554 265.602 40.4607 265.648 40.3553C265.694 40.2499 265.718 40.136 265.718 40.0209C265.718 39.9059 265.694 39.792 265.648 39.6866C265.602 39.5812 265.535 39.4865 265.45 39.4084Z" fill="#333333"/>
</g>
<path d="M42.793 75.4545C42.7418 75.0227 42.5345 74.6875 42.1708 74.4489C41.8072 74.2102 41.3612 74.0909 40.8328 74.0909C40.4464 74.0909 40.1083 74.1534 39.8186 74.2784C39.5316 74.4034 39.3072 74.5753 39.1453 74.794C38.9862 75.0128 38.9066 75.2614 38.9066 75.5398C38.9066 75.7727 38.962 75.973 39.0728 76.1406C39.1865 76.3054 39.3313 76.4432 39.5075 76.554C39.6836 76.6619 39.8683 76.7514 40.0615 76.8224C40.2546 76.8906 40.4322 76.946 40.5941 76.9886L41.4805 77.2273C41.7078 77.2869 41.9606 77.3693 42.239 77.4744C42.5203 77.5795 42.7887 77.723 43.0444 77.9048C43.3029 78.0838 43.516 78.3139 43.6836 78.5952C43.8512 78.8764 43.935 79.2216 43.935 79.6307C43.935 80.1023 43.8115 80.5284 43.5643 80.9091C43.32 81.2898 42.962 81.5923 42.4904 81.8168C42.0217 82.0412 41.4521 82.1534 40.7816 82.1534C40.1566 82.1534 39.6154 82.0526 39.158 81.8509C38.7035 81.6491 38.3455 81.3679 38.0842 81.0071C37.8257 80.6463 37.6793 80.2273 37.6453 79.75H38.7362C38.7646 80.0795 38.8754 80.3523 39.0686 80.5682C39.2646 80.7812 39.5117 80.9403 39.81 81.0455C40.1112 81.1477 40.435 81.1989 40.7816 81.1989C41.185 81.1989 41.5472 81.1335 41.8683 81.0028C42.1893 80.8693 42.4436 80.6847 42.6311 80.4489C42.8186 80.2102 42.9123 79.9318 42.9123 79.6136C42.9123 79.3239 42.8313 79.0881 42.6694 78.9062C42.5075 78.7244 42.2944 78.5767 42.0302 78.4631C41.766 78.3494 41.4805 78.25 41.1737 78.1648L40.0998 77.858C39.418 77.6619 38.8782 77.3821 38.4805 77.0185C38.0828 76.6548 37.8839 76.179 37.8839 75.5909C37.8839 75.1023 38.016 74.6761 38.2802 74.3125C38.5472 73.946 38.9052 73.6619 39.3541 73.4602C39.8058 73.2557 40.31 73.1534 40.8668 73.1534C41.4293 73.1534 41.9293 73.2543 42.3668 73.456C42.8043 73.6548 43.1509 73.9276 43.4066 74.2741C43.6651 74.6207 43.8015 75.0142 43.8157 75.4545H42.793ZM49.6612 79.3239V75.4545H50.6669V82H49.6612V80.892H49.5931C49.4396 81.2244 49.201 81.5071 48.8771 81.7401C48.5533 81.9702 48.1442 82.0852 47.6499 82.0852C47.2408 82.0852 46.8771 81.9957 46.559 81.8168C46.2408 81.6349 45.9908 81.3622 45.809 80.9986C45.6271 80.6321 45.5362 80.1705 45.5362 79.6136V75.4545H46.5419V79.5455C46.5419 80.0227 46.6754 80.4034 46.9425 80.6875C47.2124 80.9716 47.5561 81.1136 47.9737 81.1136C48.2237 81.1136 48.478 81.0497 48.7365 80.9219C48.9979 80.794 49.2166 80.598 49.3928 80.3338C49.5717 80.0696 49.6612 79.733 49.6612 79.3239ZM53.5146 78.0625V82H52.5089V75.4545H53.4805V76.4773H53.5657C53.7191 76.1449 53.9521 75.8778 54.2646 75.6761C54.5771 75.4716 54.9805 75.3693 55.4748 75.3693C55.918 75.3693 56.3058 75.4602 56.6382 75.642C56.9705 75.821 57.2291 76.0938 57.4137 76.4602C57.5984 76.8239 57.6907 77.2841 57.6907 77.8409V82H56.685V77.9091C56.685 77.3949 56.5515 76.9943 56.2845 76.7074C56.0174 76.4176 55.6509 76.2727 55.185 76.2727C54.864 76.2727 54.5771 76.3423 54.3242 76.4815C54.0742 76.6207 53.8768 76.8239 53.7319 77.0909C53.587 77.358 53.5146 77.6818 53.5146 78.0625Z" fill="#333333"/>
<path d="M70.9862 73.2727H72.2476L75.2135 80.517H75.3157L78.2817 73.2727H79.543V82H78.5544V75.3693H78.4692L75.7419 82H74.7873L72.0601 75.3693H71.9748V82H70.9862V73.2727ZM84.1847 82.1364C83.5938 82.1364 83.0753 81.9957 82.6293 81.7145C82.1861 81.4332 81.8395 81.0398 81.5895 80.5341C81.3424 80.0284 81.2188 79.4375 81.2188 78.7614C81.2188 78.0795 81.3424 77.4844 81.5895 76.9759C81.8395 76.4673 82.1861 76.0724 82.6293 75.7912C83.0753 75.5099 83.5938 75.3693 84.1847 75.3693C84.7756 75.3693 85.2927 75.5099 85.7358 75.7912C86.1819 76.0724 86.5285 76.4673 86.7756 76.9759C87.0256 77.4844 87.1506 78.0795 87.1506 78.7614C87.1506 79.4375 87.0256 80.0284 86.7756 80.5341C86.5285 81.0398 86.1819 81.4332 85.7358 81.7145C85.2927 81.9957 84.7756 82.1364 84.1847 82.1364ZM84.1847 81.233C84.6336 81.233 85.0029 81.1179 85.2927 80.8878C85.5824 80.6577 85.7969 80.3551 85.9361 79.9801C86.0753 79.6051 86.1449 79.1989 86.1449 78.7614C86.1449 78.3239 86.0753 77.9162 85.9361 77.5384C85.7969 77.1605 85.5824 76.8551 85.2927 76.6222C85.0029 76.3892 84.6336 76.2727 84.1847 76.2727C83.7358 76.2727 83.3665 76.3892 83.0768 76.6222C82.787 76.8551 82.5725 77.1605 82.4333 77.5384C82.2941 77.9162 82.2245 78.3239 82.2245 78.7614C82.2245 79.1989 82.2941 79.6051 82.4333 79.9801C82.5725 80.3551 82.787 80.6577 83.0768 80.8878C83.3665 81.1179 83.7358 81.233 84.1847 81.233ZM89.6915 78.0625V82H88.6858V75.4545H89.6574V76.4773H89.7426C89.896 76.1449 90.129 75.8778 90.4415 75.6761C90.754 75.4716 91.1574 75.3693 91.6517 75.3693C92.0949 75.3693 92.4826 75.4602 92.815 75.642C93.1474 75.821 93.4059 76.0938 93.5906 76.4602C93.7753 76.8239 93.8676 77.2841 93.8676 77.8409V82H92.8619V77.9091C92.8619 77.3949 92.7284 76.9943 92.4613 76.7074C92.1943 76.4176 91.8278 76.2727 91.3619 76.2727C91.0409 76.2727 90.754 76.3423 90.5011 76.4815C90.2511 76.6207 90.0537 76.8239 89.9088 77.0909C89.7639 77.358 89.6915 77.6818 89.6915 78.0625Z" fill="#333333"/>
<path d="M107.125 74.2102V73.2727H113.671V74.2102H110.926V82H109.87V74.2102H107.125ZM118.4 79.3239V75.4545H119.406V82H118.4V80.892H118.332C118.178 81.2244 117.94 81.5071 117.616 81.7401C117.292 81.9702 116.883 82.0852 116.388 82.0852C115.979 82.0852 115.616 81.9957 115.298 81.8168C114.979 81.6349 114.729 81.3622 114.548 80.9986C114.366 80.6321 114.275 80.1705 114.275 79.6136V75.4545H115.281V79.5455C115.281 80.0227 115.414 80.4034 115.681 80.6875C115.951 80.9716 116.295 81.1136 116.712 81.1136C116.962 81.1136 117.217 81.0497 117.475 80.9219C117.736 80.794 117.955 80.598 118.131 80.3338C118.31 80.0696 118.4 79.733 118.4 79.3239ZM123.992 82.1364C123.361 82.1364 122.817 81.9972 122.36 81.7188C121.905 81.4375 121.554 81.0455 121.307 80.5426C121.063 80.0369 120.941 79.4489 120.941 78.7784C120.941 78.108 121.063 77.517 121.307 77.0057C121.554 76.4915 121.898 76.0909 122.338 75.804C122.782 75.5142 123.299 75.3693 123.89 75.3693C124.23 75.3693 124.567 75.4261 124.899 75.5398C125.232 75.6534 125.534 75.8381 125.807 76.0938C126.08 76.3466 126.297 76.6818 126.459 77.0994C126.621 77.517 126.702 78.0312 126.702 78.642V79.0682H121.657V78.1989H125.679C125.679 77.8295 125.605 77.5 125.458 77.2102C125.313 76.9205 125.105 76.6918 124.836 76.5241C124.569 76.3565 124.253 76.2727 123.89 76.2727C123.489 76.2727 123.142 76.3722 122.85 76.571C122.56 76.767 122.337 77.0227 122.181 77.3381C122.024 77.6534 121.946 77.9915 121.946 78.3523V78.9318C121.946 79.4261 122.032 79.8452 122.202 80.1889C122.375 80.5298 122.615 80.7898 122.922 80.9688C123.229 81.1449 123.586 81.233 123.992 81.233C124.256 81.233 124.495 81.196 124.708 81.1222C124.924 81.0455 125.11 80.9318 125.266 80.7812C125.422 80.6278 125.543 80.4375 125.628 80.2102L126.6 80.483C126.497 80.8125 126.326 81.1023 126.084 81.3523C125.843 81.5994 125.544 81.7926 125.189 81.9318C124.834 82.0682 124.435 82.1364 123.992 82.1364Z" fill="#333333"/>
<path d="M141.533 82L139.146 73.2727H140.22L142.044 80.3807H142.129L143.987 73.2727H145.18L147.038 80.3807H147.124L148.947 73.2727H150.021L147.635 82H146.544L144.618 75.0455H144.55L142.624 82H141.533ZM153.337 82.1364C152.706 82.1364 152.162 81.9972 151.705 81.7188C151.25 81.4375 150.899 81.0455 150.652 80.5426C150.408 80.0369 150.286 79.4489 150.286 78.7784C150.286 78.108 150.408 77.517 150.652 77.0057C150.899 76.4915 151.243 76.0909 151.683 75.804C152.126 75.5142 152.643 75.3693 153.234 75.3693C153.575 75.3693 153.912 75.4261 154.244 75.5398C154.577 75.6534 154.879 75.8381 155.152 76.0938C155.425 76.3466 155.642 76.6818 155.804 77.0994C155.966 77.517 156.047 78.0312 156.047 78.642V79.0682H151.001V78.1989H155.024C155.024 77.8295 154.95 77.5 154.803 77.2102C154.658 76.9205 154.45 76.6918 154.18 76.5241C153.913 76.3565 153.598 76.2727 153.234 76.2727C152.834 76.2727 152.487 76.3722 152.195 76.571C151.905 76.767 151.682 77.0227 151.526 77.3381C151.369 77.6534 151.291 77.9915 151.291 78.3523V78.9318C151.291 79.4261 151.376 79.8452 151.547 80.1889C151.72 80.5298 151.96 80.7898 152.267 80.9688C152.574 81.1449 152.93 81.233 153.337 81.233C153.601 81.233 153.839 81.196 154.053 81.1222C154.268 81.0455 154.455 80.9318 154.611 80.7812C154.767 80.6278 154.888 80.4375 154.973 80.2102L155.945 80.483C155.842 80.8125 155.67 81.1023 155.429 81.3523C155.188 81.5994 154.889 81.7926 154.534 81.9318C154.179 82.0682 153.78 82.1364 153.337 82.1364ZM160.048 82.1364C159.503 82.1364 159.021 81.9986 158.604 81.723C158.186 81.4446 157.859 81.0526 157.624 80.5469C157.388 80.0384 157.27 79.4375 157.27 78.7443C157.27 78.0568 157.388 77.4602 157.624 76.9545C157.859 76.4489 158.188 76.0582 158.608 75.7827C159.028 75.5071 159.514 75.3693 160.065 75.3693C160.491 75.3693 160.828 75.4403 161.075 75.5824C161.325 75.7216 161.516 75.8807 161.646 76.0597C161.78 76.2358 161.884 76.3807 161.957 76.4943H162.043V73.2727H163.048V82H162.077V80.9943H161.957C161.884 81.1136 161.778 81.2642 161.642 81.446C161.506 81.625 161.311 81.7855 161.058 81.9276C160.805 82.0668 160.469 82.1364 160.048 82.1364ZM160.185 81.233C160.588 81.233 160.929 81.1278 161.207 80.9176C161.486 80.7045 161.697 80.4105 161.842 80.0355C161.987 79.6577 162.06 79.2216 162.06 78.7273C162.06 78.2386 161.989 77.8111 161.847 77.4446C161.705 77.0753 161.494 76.7884 161.216 76.5838C160.938 76.3764 160.594 76.2727 160.185 76.2727C159.759 76.2727 159.403 76.3821 159.119 76.6009C158.838 76.8168 158.626 77.1108 158.484 77.483C158.345 77.8523 158.276 78.267 158.276 78.7273C158.276 79.1932 158.347 79.6165 158.489 79.9972C158.634 80.375 158.847 80.6761 159.128 80.9006C159.412 81.1222 159.764 81.233 160.185 81.233Z" fill="#333333"/>
<path d="M175.77 74.2102V73.2727H182.316V74.2102H179.571V82H178.514V74.2102H175.77ZM184.816 78.0625V82H183.81V73.2727H184.816V76.4773H184.901C185.055 76.1392 185.285 75.8707 185.591 75.6719C185.901 75.4702 186.313 75.3693 186.827 75.3693C187.273 75.3693 187.664 75.4588 187.999 75.6378C188.334 75.8139 188.594 76.0852 188.779 76.4517C188.966 76.8153 189.06 77.2784 189.06 77.8409V82H188.055V77.9091C188.055 77.3892 187.92 76.9872 187.65 76.7031C187.383 76.4162 187.012 76.2727 186.537 76.2727C186.208 76.2727 185.912 76.3423 185.651 76.4815C185.393 76.6207 185.188 76.8239 185.037 77.0909C184.89 77.358 184.816 77.6818 184.816 78.0625ZM195.025 79.3239V75.4545H196.031V82H195.025V80.892H194.957C194.803 81.2244 194.565 81.5071 194.241 81.7401C193.917 81.9702 193.508 82.0852 193.014 82.0852C192.605 82.0852 192.241 81.9957 191.923 81.8168C191.605 81.6349 191.355 81.3622 191.173 80.9986C190.991 80.6321 190.9 80.1705 190.9 79.6136V75.4545H191.906V79.5455C191.906 80.0227 192.039 80.4034 192.306 80.6875C192.576 80.9716 192.92 81.1136 193.338 81.1136C193.588 81.1136 193.842 81.0497 194.1 80.9219C194.362 80.794 194.58 80.598 194.757 80.3338C194.936 80.0696 195.025 79.733 195.025 79.3239Z" fill="#333333"/>
<path d="M214.557 82V73.2727H219.79V74.2102H215.614V77.1591H219.398V78.0966H215.614V82H214.557ZM221.393 82V75.4545H222.365V76.4432H222.433C222.553 76.1193 222.768 75.8565 223.081 75.6548C223.393 75.4531 223.746 75.3523 224.138 75.3523C224.212 75.3523 224.304 75.3537 224.415 75.3565C224.526 75.3594 224.609 75.3636 224.666 75.3693V76.392C224.632 76.3835 224.554 76.3707 224.432 76.3537C224.312 76.3338 224.186 76.3239 224.053 76.3239C223.734 76.3239 223.45 76.3906 223.2 76.5241C222.953 76.6548 222.757 76.8366 222.612 77.0696C222.47 77.2997 222.399 77.5625 222.399 77.858V82H221.393ZM225.858 82V75.4545H226.864V82H225.858ZM226.37 74.3636C226.174 74.3636 226.005 74.2969 225.863 74.1634C225.723 74.0298 225.654 73.8693 225.654 73.6818C225.654 73.4943 225.723 73.3338 225.863 73.2003C226.005 73.0668 226.174 73 226.37 73C226.566 73 226.733 73.0668 226.872 73.2003C227.015 73.3338 227.086 73.4943 227.086 73.6818C227.086 73.8693 227.015 74.0298 226.872 74.1634C226.733 74.2969 226.566 74.3636 226.37 74.3636Z" fill="#333333"/>
<path d="M251.657 75.4545C251.606 75.0227 251.399 74.6875 251.035 74.4489C250.671 74.2102 250.225 74.0909 249.697 74.0909C249.311 74.0909 248.972 74.1534 248.683 74.2784C248.396 74.4034 248.171 74.5753 248.009 74.794C247.85 75.0128 247.771 75.2614 247.771 75.5398C247.771 75.7727 247.826 75.973 247.937 76.1406C248.051 76.3054 248.195 76.4432 248.372 76.554C248.548 76.6619 248.732 76.7514 248.926 76.8224C249.119 76.8906 249.296 76.946 249.458 76.9886L250.345 77.2273C250.572 77.2869 250.825 77.3693 251.103 77.4744C251.384 77.5795 251.653 77.723 251.909 77.9048C252.167 78.0838 252.38 78.3139 252.548 78.5952C252.715 78.8764 252.799 79.2216 252.799 79.6307C252.799 80.1023 252.676 80.5284 252.428 80.9091C252.184 81.2898 251.826 81.5923 251.355 81.8168C250.886 82.0412 250.316 82.1534 249.646 82.1534C249.021 82.1534 248.48 82.0526 248.022 81.8509C247.568 81.6491 247.21 81.3679 246.948 81.0071C246.69 80.6463 246.543 80.2273 246.509 79.75H247.6C247.629 80.0795 247.74 80.3523 247.933 80.5682C248.129 80.7812 248.376 80.9403 248.674 81.0455C248.975 81.1477 249.299 81.1989 249.646 81.1989C250.049 81.1989 250.411 81.1335 250.732 81.0028C251.053 80.8693 251.308 80.6847 251.495 80.4489C251.683 80.2102 251.776 79.9318 251.776 79.6136C251.776 79.3239 251.695 79.0881 251.534 78.9062C251.372 78.7244 251.159 78.5767 250.894 78.4631C250.63 78.3494 250.345 78.25 250.038 78.1648L248.964 77.858C248.282 77.6619 247.742 77.3821 247.345 77.0185C246.947 76.6548 246.748 76.179 246.748 75.5909C246.748 75.1023 246.88 74.6761 247.144 74.3125C247.411 73.946 247.769 73.6619 248.218 73.4602C248.67 73.2557 249.174 73.1534 249.731 73.1534C250.293 73.1534 250.793 73.2543 251.231 73.456C251.668 73.6548 252.015 73.9276 252.271 74.2741C252.529 74.6207 252.666 75.0142 252.68 75.4545H251.657ZM256.327 82.1534C255.912 82.1534 255.535 82.0753 255.197 81.919C254.859 81.7599 254.591 81.5312 254.392 81.233C254.193 80.9318 254.094 80.5682 254.094 80.142C254.094 79.767 254.167 79.4631 254.315 79.2301C254.463 78.9943 254.66 78.8097 254.907 78.6761C255.155 78.5426 255.427 78.4432 255.726 78.3778C256.027 78.3097 256.329 78.2557 256.633 78.2159C257.031 78.1648 257.353 78.1264 257.601 78.1009C257.851 78.0724 258.032 78.0256 258.146 77.9602C258.263 77.8949 258.321 77.7812 258.321 77.6193V77.5852C258.321 77.1648 258.206 76.8381 257.976 76.6051C257.748 76.3722 257.403 76.2557 256.94 76.2557C256.46 76.2557 256.084 76.3608 255.811 76.571C255.538 76.7812 255.346 77.0057 255.236 77.2443L254.281 76.9034C254.452 76.5057 254.679 76.196 254.963 75.9744C255.25 75.75 255.562 75.5937 255.9 75.5057C256.241 75.4148 256.577 75.3693 256.906 75.3693C257.116 75.3693 257.358 75.3949 257.63 75.446C257.906 75.4943 258.172 75.5952 258.427 75.7486C258.686 75.902 258.9 76.1335 259.071 76.4432C259.241 76.7528 259.327 77.1676 259.327 77.6875V82H258.321V81.1136H258.27C258.202 81.2557 258.088 81.4077 257.929 81.5696C257.77 81.7315 257.558 81.8693 257.294 81.983C257.03 82.0966 256.707 82.1534 256.327 82.1534ZM256.48 81.25C256.878 81.25 257.213 81.1719 257.486 81.0156C257.761 80.8594 257.969 80.6577 258.108 80.4105C258.25 80.1634 258.321 79.9034 258.321 79.6307V78.7102C258.278 78.7614 258.184 78.8082 258.04 78.8509C257.898 78.8906 257.733 78.9261 257.545 78.9574C257.361 78.9858 257.18 79.0114 257.004 79.0341C256.831 79.054 256.69 79.071 256.582 79.0852C256.321 79.1193 256.077 79.1747 255.849 79.2514C255.625 79.3253 255.443 79.4375 255.304 79.5881C255.167 79.7358 255.099 79.9375 255.099 80.1932C255.099 80.5426 255.228 80.8068 255.487 80.9858C255.748 81.1619 256.079 81.25 256.48 81.25ZM264.009 75.4545V76.3068H260.617V75.4545H264.009ZM261.605 73.8864H262.611V80.125C262.611 80.4091 262.652 80.6222 262.735 80.7642C262.82 80.9034 262.928 80.9972 263.058 81.0455C263.192 81.0909 263.333 81.1136 263.48 81.1136C263.591 81.1136 263.682 81.108 263.753 81.0966C263.824 81.0824 263.881 81.071 263.923 81.0625L264.128 81.9659C264.06 81.9915 263.965 82.017 263.842 82.0426C263.72 82.071 263.566 82.0852 263.378 82.0852C263.094 82.0852 262.816 82.0241 262.543 81.902C262.273 81.7798 262.048 81.5938 261.869 81.3438C261.693 81.0938 261.605 80.7784 261.605 80.3977V73.8864Z" fill="#333333"/>
<g opacity="0.7">
<path d="M187.11 120H185.845V111.906C185.845 111.599 185.845 111.336 185.845 111.117C185.85 110.893 185.855 110.69 185.86 110.508C185.871 110.32 185.884 110.13 185.9 109.938C185.738 110.104 185.587 110.247 185.446 110.367C185.306 110.482 185.131 110.625 184.923 110.797L183.618 111.844L182.939 110.961L186.032 108.578H187.11V120Z" fill="#333333"/>
<path d="M224.338 120H216.854V118.914L219.909 115.812C220.476 115.24 220.953 114.729 221.338 114.281C221.729 113.833 222.026 113.393 222.229 112.961C222.432 112.523 222.534 112.044 222.534 111.523C222.534 110.878 222.341 110.385 221.955 110.047C221.575 109.703 221.073 109.531 220.448 109.531C219.901 109.531 219.416 109.625 218.994 109.812C218.573 110 218.14 110.266 217.698 110.609L217.002 109.734C217.304 109.479 217.632 109.253 217.987 109.055C218.346 108.857 218.729 108.701 219.135 108.586C219.547 108.471 219.984 108.414 220.448 108.414C221.151 108.414 221.757 108.536 222.268 108.781C222.778 109.026 223.172 109.375 223.448 109.828C223.729 110.281 223.869 110.82 223.869 111.445C223.869 112.049 223.75 112.612 223.51 113.133C223.27 113.648 222.935 114.161 222.502 114.672C222.07 115.177 221.565 115.714 220.987 116.281L218.502 118.758V118.812H224.338V120Z" fill="#333333"/>
<path d="M258.488 111.242C258.488 111.753 258.389 112.195 258.191 112.57C257.993 112.945 257.717 113.253 257.363 113.492C257.009 113.727 256.592 113.891 256.113 113.984V114.047C257.019 114.161 257.699 114.453 258.152 114.922C258.61 115.391 258.839 116.005 258.839 116.766C258.839 117.427 258.683 118.013 258.371 118.523C258.063 119.034 257.589 119.435 256.949 119.727C256.313 120.013 255.498 120.156 254.503 120.156C253.899 120.156 253.339 120.107 252.824 120.008C252.313 119.914 251.824 119.755 251.355 119.531V118.312C251.829 118.547 252.345 118.732 252.902 118.867C253.459 118.997 253.998 119.062 254.519 119.062C255.561 119.062 256.313 118.857 256.777 118.445C257.24 118.029 257.472 117.461 257.472 116.742C257.472 116.247 257.342 115.849 257.081 115.547C256.826 115.24 256.456 115.016 255.972 114.875C255.493 114.729 254.915 114.656 254.238 114.656H253.097V113.547H254.246C254.865 113.547 255.391 113.456 255.824 113.273C256.256 113.091 256.584 112.836 256.808 112.508C257.037 112.174 257.152 111.781 257.152 111.328C257.152 110.75 256.959 110.305 256.574 109.992C256.188 109.674 255.665 109.516 255.003 109.516C254.597 109.516 254.227 109.557 253.894 109.641C253.561 109.724 253.248 109.839 252.956 109.984C252.665 110.13 252.373 110.299 252.081 110.492L251.425 109.602C251.842 109.279 252.35 109 252.949 108.766C253.548 108.531 254.227 108.414 254.988 108.414C256.154 108.414 257.029 108.68 257.613 109.211C258.196 109.742 258.488 110.419 258.488 111.242Z" fill="#333333"/>
</g>
<g opacity="0.7">
<path d="M52.0513 153.352H50.3404V156H49.0748V153.352H43.5513V152.258L48.9888 144.516H50.3404V152.18H52.0513V153.352ZM49.0748 152.18V148.445C49.0748 148.159 49.0774 147.901 49.0826 147.672C49.0878 147.438 49.0956 147.221 49.106 147.023C49.1164 146.82 49.1242 146.628 49.1295 146.445C49.1399 146.263 49.1477 146.083 49.1529 145.906H49.0904C48.9914 146.115 48.8769 146.336 48.7466 146.57C48.6216 146.799 48.494 147.005 48.3638 147.188L44.8404 152.18H49.0748Z" fill="#333333"/>
<path d="M82.1774 149.016C82.9535 149.016 83.628 149.148 84.2009 149.414C84.7738 149.674 85.2165 150.055 85.529 150.555C85.8467 151.055 86.0056 151.661 86.0056 152.375C86.0056 153.156 85.8363 153.831 85.4977 154.398C85.1592 154.961 84.6722 155.396 84.0368 155.703C83.4014 156.005 82.641 156.156 81.7556 156.156C81.1618 156.156 80.6097 156.104 80.0993 156C79.5889 155.896 79.1592 155.74 78.8102 155.531V154.297C79.1905 154.526 79.6514 154.708 80.1931 154.844C80.7347 154.979 81.2608 155.047 81.7712 155.047C82.3493 155.047 82.8545 154.956 83.2868 154.773C83.7243 154.586 84.0628 154.305 84.3024 153.93C84.5472 153.549 84.6696 153.073 84.6696 152.5C84.6696 151.74 84.4352 151.154 83.9665 150.742C83.503 150.326 82.7686 150.117 81.7634 150.117C81.4405 150.117 81.0863 150.143 80.7009 150.195C80.3155 150.247 79.9977 150.305 79.7477 150.367L79.0915 149.938L79.529 144.578H85.2087V145.766H80.6384L80.3493 149.211C80.5472 149.169 80.8024 149.128 81.1149 149.086C81.4274 149.039 81.7816 149.016 82.1774 149.016Z" fill="#333333"/>
<path d="M113.257 151.117C113.257 150.43 113.304 149.758 113.397 149.102C113.496 148.445 113.66 147.836 113.89 147.273C114.119 146.706 114.431 146.208 114.827 145.781C115.223 145.354 115.715 145.021 116.304 144.781C116.897 144.536 117.608 144.414 118.436 144.414C118.671 144.414 118.923 144.427 119.194 144.453C119.465 144.474 119.689 144.51 119.866 144.562V145.68C119.673 145.612 119.452 145.562 119.202 145.531C118.957 145.5 118.71 145.484 118.46 145.484C117.491 145.484 116.728 145.695 116.171 146.117C115.619 146.539 115.22 147.112 114.975 147.836C114.731 148.555 114.59 149.365 114.554 150.266H114.64C114.801 150.005 115.007 149.771 115.257 149.562C115.507 149.349 115.809 149.18 116.163 149.055C116.522 148.93 116.939 148.867 117.413 148.867C118.08 148.867 118.66 149.003 119.155 149.273C119.655 149.544 120.041 149.938 120.311 150.453C120.587 150.969 120.725 151.594 120.725 152.328C120.725 153.115 120.58 153.794 120.288 154.367C119.996 154.94 119.58 155.383 119.038 155.695C118.502 156.003 117.861 156.156 117.116 156.156C116.559 156.156 116.046 156.049 115.577 155.836C115.108 155.622 114.699 155.305 114.35 154.883C114.007 154.461 113.738 153.938 113.546 153.312C113.353 152.682 113.257 151.951 113.257 151.117ZM117.1 155.062C117.809 155.062 118.377 154.836 118.804 154.383C119.231 153.93 119.444 153.245 119.444 152.328C119.444 151.578 119.254 150.984 118.874 150.547C118.494 150.109 117.921 149.891 117.155 149.891C116.634 149.891 116.181 150 115.796 150.219C115.41 150.432 115.111 150.703 114.897 151.031C114.684 151.359 114.577 151.693 114.577 152.031C114.577 152.375 114.627 152.724 114.725 153.078C114.83 153.432 114.986 153.76 115.194 154.062C115.403 154.365 115.666 154.607 115.983 154.789C116.301 154.971 116.673 155.062 117.1 155.062Z" fill="#333333"/>
<path d="M149.188 156L153.875 145.766H147.648V144.578H155.266V145.578L150.609 156H149.188Z" fill="#333333"/>
<path d="M186.056 144.414C186.717 144.414 187.303 144.518 187.814 144.727C188.324 144.935 188.722 145.242 189.009 145.648C189.301 146.049 189.446 146.544 189.446 147.133C189.446 147.596 189.345 148.003 189.142 148.352C188.944 148.695 188.676 148.997 188.337 149.258C187.998 149.513 187.623 149.742 187.212 149.945C187.702 150.169 188.142 150.422 188.532 150.703C188.928 150.984 189.241 151.315 189.47 151.695C189.699 152.076 189.814 152.526 189.814 153.047C189.814 153.688 189.657 154.242 189.345 154.711C189.038 155.174 188.605 155.531 188.048 155.781C187.491 156.031 186.837 156.156 186.087 156.156C185.28 156.156 184.592 156.036 184.025 155.797C183.462 155.552 183.032 155.203 182.735 154.75C182.444 154.292 182.298 153.742 182.298 153.102C182.298 152.576 182.41 152.12 182.634 151.734C182.858 151.344 183.155 151.008 183.525 150.727C183.894 150.445 184.298 150.208 184.735 150.016C184.355 149.807 184.006 149.57 183.689 149.305C183.376 149.039 183.126 148.729 182.939 148.375C182.756 148.016 182.665 147.599 182.665 147.125C182.665 146.547 182.811 146.057 183.103 145.656C183.4 145.25 183.803 144.943 184.314 144.734C184.829 144.521 185.41 144.414 186.056 144.414ZM183.571 153.109C183.571 153.693 183.777 154.174 184.189 154.555C184.6 154.93 185.222 155.117 186.056 155.117C186.847 155.117 187.459 154.93 187.892 154.555C188.324 154.174 188.54 153.677 188.54 153.062C188.54 152.682 188.441 152.349 188.243 152.062C188.045 151.771 187.764 151.51 187.4 151.281C187.035 151.052 186.605 150.844 186.11 150.656L185.829 150.555C185.35 150.753 184.941 150.974 184.603 151.219C184.269 151.458 184.014 151.732 183.837 152.039C183.66 152.346 183.571 152.703 183.571 153.109ZM186.04 145.477C185.426 145.477 184.923 145.625 184.532 145.922C184.142 146.214 183.946 146.635 183.946 147.188C183.946 147.583 184.04 147.919 184.228 148.195C184.42 148.466 184.681 148.701 185.009 148.898C185.337 149.091 185.704 149.271 186.11 149.438C186.506 149.271 186.858 149.089 187.165 148.891C187.472 148.688 187.715 148.448 187.892 148.172C188.069 147.896 188.157 147.565 188.157 147.18C188.157 146.628 187.962 146.206 187.571 145.914C187.186 145.622 186.676 145.477 186.04 145.477Z" fill="#333333"/>
<path d="M224.354 149.445C224.354 150.138 224.304 150.812 224.205 151.469C224.112 152.125 223.948 152.737 223.713 153.305C223.484 153.872 223.172 154.37 222.776 154.797C222.38 155.224 221.882 155.56 221.284 155.805C220.69 156.044 219.979 156.164 219.151 156.164C218.927 156.164 218.672 156.148 218.385 156.117C218.099 156.091 217.864 156.052 217.682 156V154.875C217.875 154.943 218.101 154.997 218.362 155.039C218.622 155.076 218.877 155.094 219.127 155.094C220.101 155.094 220.867 154.885 221.424 154.469C221.981 154.047 222.382 153.477 222.627 152.758C222.872 152.034 223.01 151.221 223.041 150.32H222.948C222.791 150.57 222.586 150.802 222.33 151.016C222.08 151.224 221.776 151.393 221.416 151.523C221.057 151.648 220.638 151.711 220.159 151.711C219.497 151.711 218.919 151.576 218.424 151.305C217.935 151.034 217.552 150.641 217.276 150.125C217.005 149.609 216.869 148.987 216.869 148.258C216.869 147.471 217.018 146.792 217.315 146.219C217.617 145.641 218.039 145.195 218.58 144.883C219.122 144.57 219.76 144.414 220.494 144.414C221.057 144.414 221.573 144.521 222.041 144.734C222.51 144.948 222.916 145.268 223.26 145.695C223.609 146.117 223.877 146.641 224.065 147.266C224.257 147.891 224.354 148.617 224.354 149.445ZM220.494 145.516C219.802 145.516 219.239 145.742 218.807 146.195C218.38 146.648 218.166 147.331 218.166 148.242C218.166 148.997 218.351 149.594 218.721 150.031C219.091 150.469 219.661 150.688 220.432 150.688C220.963 150.688 221.422 150.581 221.807 150.367C222.198 150.154 222.497 149.883 222.705 149.555C222.919 149.227 223.026 148.891 223.026 148.547C223.026 148.203 222.974 147.854 222.869 147.5C222.77 147.146 222.617 146.82 222.409 146.523C222.2 146.221 221.937 145.979 221.619 145.797C221.302 145.609 220.927 145.516 220.494 145.516Z" fill="#333333"/>
<path d="M251.675 156H250.41V147.906C250.41 147.599 250.41 147.336 250.41 147.117C250.415 146.893 250.42 146.69 250.425 146.508C250.436 146.32 250.449 146.13 250.464 145.938C250.303 146.104 250.152 146.247 250.011 146.367C249.871 146.482 249.696 146.625 249.488 146.797L248.183 147.844L247.503 146.961L250.597 144.578H251.675V156ZM263.55 150.273C263.55 151.201 263.48 152.029 263.339 152.758C263.199 153.487 262.977 154.104 262.675 154.609C262.373 155.115 261.983 155.5 261.503 155.766C261.024 156.026 260.449 156.156 259.777 156.156C258.928 156.156 258.225 155.924 257.667 155.461C257.115 154.997 256.701 154.328 256.425 153.453C256.154 152.573 256.019 151.513 256.019 150.273C256.019 149.055 256.141 148.008 256.386 147.133C256.636 146.253 257.037 145.578 257.589 145.109C258.141 144.635 258.871 144.398 259.777 144.398C260.636 144.398 261.345 144.633 261.902 145.102C262.459 145.565 262.873 146.237 263.144 147.117C263.415 147.992 263.55 149.044 263.55 150.273ZM257.324 150.273C257.324 151.336 257.404 152.221 257.566 152.93C257.727 153.638 257.988 154.169 258.347 154.523C258.712 154.872 259.188 155.047 259.777 155.047C260.365 155.047 260.839 154.872 261.199 154.523C261.563 154.174 261.826 153.646 261.988 152.938C262.154 152.229 262.238 151.341 262.238 150.273C262.238 149.227 262.157 148.352 261.996 147.648C261.834 146.94 261.574 146.409 261.214 146.055C260.855 145.695 260.376 145.516 259.777 145.516C259.178 145.516 258.699 145.695 258.339 146.055C257.98 146.409 257.72 146.94 257.558 147.648C257.402 148.352 257.324 149.227 257.324 150.273Z" fill="#333333"/>
</g>
<g opacity="0.7">
<path d="M44.2466 192H42.981V183.906C42.981 183.599 42.981 183.336 42.981 183.117C42.9862 182.893 42.9914 182.69 42.9966 182.508C43.0071 182.32 43.0201 182.13 43.0357 181.938C42.8742 182.104 42.7232 182.247 42.5826 182.367C42.442 182.482 42.2675 182.625 42.0591 182.797L40.7545 183.844L40.0748 182.961L43.1685 180.578H44.2466V192ZM53.4029 192H52.1373V183.906C52.1373 183.599 52.1373 183.336 52.1373 183.117C52.1425 182.893 52.1477 182.69 52.1529 182.508C52.1633 182.32 52.1763 182.13 52.192 181.938C52.0305 182.104 51.8795 182.247 51.7388 182.367C51.5982 182.482 51.4237 182.625 51.2154 182.797L49.9107 183.844L49.231 182.961L52.3248 180.578H53.4029V192Z" fill="#333333"/>
<path d="M81.4743 192H73.9899V190.914L77.0446 187.812C77.6123 187.24 78.0889 186.729 78.4743 186.281C78.8649 185.833 79.1618 185.393 79.3649 184.961C79.5681 184.523 79.6696 184.044 79.6696 183.523C79.6696 182.878 79.4769 182.385 79.0915 182.047C78.7113 181.703 78.2087 181.531 77.5837 181.531C77.0368 181.531 76.5524 181.625 76.1306 181.812C75.7087 182 75.2764 182.266 74.8337 182.609L74.1384 181.734C74.4405 181.479 74.7686 181.253 75.1227 181.055C75.4821 180.857 75.8649 180.701 76.2712 180.586C76.6826 180.471 77.1201 180.414 77.5837 180.414C78.2868 180.414 78.8936 180.536 79.404 180.781C79.9144 181.026 80.3076 181.375 80.5837 181.828C80.8649 182.281 81.0056 182.82 81.0056 183.445C81.0056 184.049 80.8858 184.612 80.6462 185.133C80.4066 185.648 80.0707 186.161 79.6384 186.672C79.2061 187.177 78.7009 187.714 78.1227 188.281L75.6384 190.758V190.812H81.4743V192ZM90.2087 183.242C90.2087 183.753 90.1097 184.195 89.9118 184.57C89.7139 184.945 89.4378 185.253 89.0837 185.492C88.7295 185.727 88.3128 185.891 87.8337 185.984V186.047C88.7399 186.161 89.4196 186.453 89.8727 186.922C90.3311 187.391 90.5602 188.005 90.5602 188.766C90.5602 189.427 90.404 190.013 90.0915 190.523C89.7842 191.034 89.3102 191.435 88.6696 191.727C88.0342 192.013 87.2191 192.156 86.2243 192.156C85.6201 192.156 85.0602 192.107 84.5446 192.008C84.0342 191.914 83.5446 191.755 83.0759 191.531V190.312C83.5498 190.547 84.0655 190.732 84.6227 190.867C85.18 190.997 85.7191 191.062 86.2399 191.062C87.2816 191.062 88.0342 190.857 88.4977 190.445C88.9613 190.029 89.1931 189.461 89.1931 188.742C89.1931 188.247 89.0628 187.849 88.8024 187.547C88.5472 187.24 88.1774 187.016 87.6931 186.875C87.2139 186.729 86.6358 186.656 85.9587 186.656H84.8181V185.547H85.9665C86.5863 185.547 87.1123 185.456 87.5446 185.273C87.9769 185.091 88.305 184.836 88.529 184.508C88.7582 184.174 88.8727 183.781 88.8727 183.328C88.8727 182.75 88.68 182.305 88.2946 181.992C87.9092 181.674 87.3858 181.516 86.7243 181.516C86.3181 181.516 85.9483 181.557 85.6149 181.641C85.2816 181.724 84.9691 181.839 84.6774 181.984C84.3858 182.13 84.0941 182.299 83.8024 182.492L83.1462 181.602C83.5628 181.279 84.0707 181 84.6696 180.766C85.2686 180.531 85.9483 180.414 86.7087 180.414C87.8753 180.414 88.7503 180.68 89.3337 181.211C89.917 181.742 90.2087 182.419 90.2087 183.242Z" fill="#333333"/>
<path d="M113.39 192H112.124V183.906C112.124 183.599 112.124 183.336 112.124 183.117C112.129 182.893 112.134 182.69 112.14 182.508C112.15 182.32 112.163 182.13 112.179 181.938C112.017 182.104 111.866 182.247 111.725 182.367C111.585 182.482 111.41 182.625 111.202 182.797L109.897 183.844L109.218 182.961L112.311 180.578H113.39V192ZM124.78 183.242C124.78 183.753 124.681 184.195 124.483 184.57C124.285 184.945 124.009 185.253 123.655 185.492C123.301 185.727 122.884 185.891 122.405 185.984V186.047C123.311 186.161 123.991 186.453 124.444 186.922C124.903 187.391 125.132 188.005 125.132 188.766C125.132 189.427 124.975 190.013 124.663 190.523C124.356 191.034 123.882 191.435 123.241 191.727C122.606 192.013 121.791 192.156 120.796 192.156C120.192 192.156 119.632 192.107 119.116 192.008C118.606 191.914 118.116 191.755 117.647 191.531V190.312C118.121 190.547 118.637 190.732 119.194 190.867C119.752 190.997 120.291 191.062 120.811 191.062C121.853 191.062 122.606 190.857 123.069 190.445C123.533 190.029 123.765 189.461 123.765 188.742C123.765 188.247 123.634 187.849 123.374 187.547C123.119 187.24 122.749 187.016 122.265 186.875C121.785 186.729 121.207 186.656 120.53 186.656H119.39V185.547H120.538C121.158 185.547 121.684 185.456 122.116 185.273C122.548 185.091 122.877 184.836 123.1 184.508C123.33 184.174 123.444 183.781 123.444 183.328C123.444 182.75 123.252 182.305 122.866 181.992C122.481 181.674 121.957 181.516 121.296 181.516C120.89 181.516 120.52 181.557 120.186 181.641C119.853 181.724 119.541 181.839 119.249 181.984C118.957 182.13 118.666 182.299 118.374 182.492L117.718 181.602C118.134 181.279 118.642 181 119.241 180.766C119.84 180.531 120.52 180.414 121.28 180.414C122.447 180.414 123.322 180.68 123.905 181.211C124.488 181.742 124.78 182.419 124.78 183.242Z" fill="#333333"/>
<path d="M147.961 192H146.695V183.906C146.695 183.599 146.695 183.336 146.695 183.117C146.701 182.893 146.706 182.69 146.711 182.508C146.721 182.32 146.734 182.13 146.75 181.938C146.589 182.104 146.438 182.247 146.297 182.367C146.156 182.482 145.982 182.625 145.773 182.797L144.469 183.844L143.789 182.961L146.883 180.578H147.961V192ZM160.344 189.352H158.633V192H157.367V189.352H151.844V188.258L157.281 180.516H158.633V188.18H160.344V189.352ZM157.367 188.18V184.445C157.367 184.159 157.37 183.901 157.375 183.672C157.38 183.438 157.388 183.221 157.398 183.023C157.409 182.82 157.417 182.628 157.422 182.445C157.432 182.263 157.44 182.083 157.445 181.906H157.383C157.284 182.115 157.169 182.336 157.039 182.57C156.914 182.799 156.786 183.005 156.656 183.188L153.133 188.18H157.367Z" fill="#333333"/>
<path d="M182.532 192H181.267V183.906C181.267 183.599 181.267 183.336 181.267 183.117C181.272 182.893 181.277 182.69 181.282 182.508C181.293 182.32 181.306 182.13 181.321 181.938C181.16 182.104 181.009 182.247 180.868 182.367C180.728 182.482 180.553 182.625 180.345 182.797L179.04 183.844L178.36 182.961L181.454 180.578H182.532V192ZM190.47 185.016C191.246 185.016 191.92 185.148 192.493 185.414C193.066 185.674 193.509 186.055 193.821 186.555C194.139 187.055 194.298 187.661 194.298 188.375C194.298 189.156 194.129 189.831 193.79 190.398C193.452 190.961 192.965 191.396 192.329 191.703C191.694 192.005 190.933 192.156 190.048 192.156C189.454 192.156 188.902 192.104 188.392 192C187.881 191.896 187.452 191.74 187.103 191.531V190.297C187.483 190.526 187.944 190.708 188.485 190.844C189.027 190.979 189.553 191.047 190.064 191.047C190.642 191.047 191.147 190.956 191.579 190.773C192.017 190.586 192.355 190.305 192.595 189.93C192.84 189.549 192.962 189.073 192.962 188.5C192.962 187.74 192.728 187.154 192.259 186.742C191.795 186.326 191.061 186.117 190.056 186.117C189.733 186.117 189.379 186.143 188.993 186.195C188.608 186.247 188.29 186.305 188.04 186.367L187.384 185.938L187.821 180.578H193.501V181.766H188.931L188.642 185.211C188.84 185.169 189.095 185.128 189.407 185.086C189.72 185.039 190.074 185.016 190.47 185.016Z" fill="#333333"/>
<path d="M217.104 192H215.838V183.906C215.838 183.599 215.838 183.336 215.838 183.117C215.843 182.893 215.849 182.69 215.854 182.508C215.864 182.32 215.877 182.13 215.893 181.938C215.731 182.104 215.58 182.247 215.44 182.367C215.299 182.482 215.125 182.625 214.916 182.797L213.612 183.844L212.932 182.961L216.026 180.578H217.104V192ZM221.549 187.117C221.549 186.43 221.596 185.758 221.69 185.102C221.789 184.445 221.953 183.836 222.182 183.273C222.411 182.706 222.724 182.208 223.119 181.781C223.515 181.354 224.007 181.021 224.596 180.781C225.19 180.536 225.901 180.414 226.729 180.414C226.963 180.414 227.216 180.427 227.487 180.453C227.757 180.474 227.981 180.51 228.159 180.562V181.68C227.966 181.612 227.744 181.562 227.494 181.531C227.25 181.5 227.002 181.484 226.752 181.484C225.784 181.484 225.02 181.695 224.463 182.117C223.911 182.539 223.513 183.112 223.268 183.836C223.023 184.555 222.882 185.365 222.846 186.266H222.932C223.093 186.005 223.299 185.771 223.549 185.562C223.799 185.349 224.101 185.18 224.455 185.055C224.815 184.93 225.231 184.867 225.705 184.867C226.372 184.867 226.953 185.003 227.448 185.273C227.948 185.544 228.333 185.938 228.604 186.453C228.88 186.969 229.018 187.594 229.018 188.328C229.018 189.115 228.872 189.794 228.58 190.367C228.289 190.94 227.872 191.383 227.33 191.695C226.794 192.003 226.153 192.156 225.409 192.156C224.851 192.156 224.338 192.049 223.869 191.836C223.401 191.622 222.992 191.305 222.643 190.883C222.299 190.461 222.031 189.938 221.838 189.312C221.645 188.682 221.549 187.951 221.549 187.117ZM225.393 191.062C226.101 191.062 226.669 190.836 227.096 190.383C227.523 189.93 227.737 189.245 227.737 188.328C227.737 187.578 227.547 186.984 227.166 186.547C226.786 186.109 226.213 185.891 225.448 185.891C224.927 185.891 224.474 186 224.088 186.219C223.703 186.432 223.403 186.703 223.19 187.031C222.976 187.359 222.869 187.693 222.869 188.031C222.869 188.375 222.919 188.724 223.018 189.078C223.122 189.432 223.278 189.76 223.487 190.062C223.695 190.365 223.958 190.607 224.276 190.789C224.593 190.971 224.966 191.062 225.393 191.062Z" fill="#333333"/>
<path d="M251.675 192H250.41V183.906C250.41 183.599 250.41 183.336 250.41 183.117C250.415 182.893 250.42 182.69 250.425 182.508C250.436 182.32 250.449 182.13 250.464 181.938C250.303 182.104 250.152 182.247 250.011 182.367C249.871 182.482 249.696 182.625 249.488 182.797L248.183 183.844L247.503 182.961L250.597 180.578H251.675V192ZM257.48 192L262.167 181.766H255.941V180.578H263.558V181.578L258.902 192H257.48Z" fill="#333333"/>
</g>
<g opacity="0.7">
<path d="M44.2466 228H42.981V219.906C42.981 219.599 42.981 219.336 42.981 219.117C42.9862 218.893 42.9914 218.69 42.9966 218.508C43.0071 218.32 43.0201 218.13 43.0357 217.938C42.8742 218.104 42.7232 218.247 42.5826 218.367C42.442 218.482 42.2675 218.625 42.0591 218.797L40.7545 219.844L40.0748 218.961L43.1685 216.578H44.2466V228ZM52.3482 216.414C53.0097 216.414 53.5956 216.518 54.106 216.727C54.6164 216.935 55.0149 217.242 55.3013 217.648C55.593 218.049 55.7388 218.544 55.7388 219.133C55.7388 219.596 55.6373 220.003 55.4341 220.352C55.2362 220.695 54.968 220.997 54.6295 221.258C54.2909 221.513 53.9159 221.742 53.5045 221.945C53.994 222.169 54.4341 222.422 54.8248 222.703C55.2206 222.984 55.5331 223.315 55.7623 223.695C55.9914 224.076 56.106 224.526 56.106 225.047C56.106 225.688 55.9498 226.242 55.6373 226.711C55.33 227.174 54.8977 227.531 54.3404 227.781C53.7831 228.031 53.1295 228.156 52.3795 228.156C51.5722 228.156 50.8847 228.036 50.317 227.797C49.7545 227.552 49.3248 227.203 49.0279 226.75C48.7362 226.292 48.5904 225.742 48.5904 225.102C48.5904 224.576 48.7024 224.12 48.9263 223.734C49.1503 223.344 49.4472 223.008 49.817 222.727C50.1867 222.445 50.5904 222.208 51.0279 222.016C50.6477 221.807 50.2987 221.57 49.981 221.305C49.6685 221.039 49.4185 220.729 49.231 220.375C49.0487 220.016 48.9576 219.599 48.9576 219.125C48.9576 218.547 49.1034 218.057 49.3951 217.656C49.692 217.25 50.0956 216.943 50.606 216.734C51.1216 216.521 51.7024 216.414 52.3482 216.414ZM49.8638 225.109C49.8638 225.693 50.0696 226.174 50.481 226.555C50.8925 226.93 51.5149 227.117 52.3482 227.117C53.1399 227.117 53.7519 226.93 54.1841 226.555C54.6164 226.174 54.8326 225.677 54.8326 225.062C54.8326 224.682 54.7336 224.349 54.5357 224.062C54.3378 223.771 54.0565 223.51 53.692 223.281C53.3274 223.052 52.8977 222.844 52.4029 222.656L52.1216 222.555C51.6425 222.753 51.2336 222.974 50.8951 223.219C50.5617 223.458 50.3065 223.732 50.1295 224.039C49.9524 224.346 49.8638 224.703 49.8638 225.109ZM52.3326 217.477C51.718 217.477 51.2154 217.625 50.8248 217.922C50.4341 218.214 50.2388 218.635 50.2388 219.188C50.2388 219.583 50.3326 219.919 50.5201 220.195C50.7128 220.466 50.9732 220.701 51.3013 220.898C51.6295 221.091 51.9966 221.271 52.4029 221.438C52.7987 221.271 53.1503 221.089 53.4576 220.891C53.7649 220.688 54.0071 220.448 54.1841 220.172C54.3612 219.896 54.4498 219.565 54.4498 219.18C54.4498 218.628 54.2545 218.206 53.8638 217.914C53.4784 217.622 52.968 217.477 52.3326 217.477Z" fill="#333333"/>
</g>
<g opacity="0.7">
<path d="M78.8181 228H77.5524V219.906C77.5524 219.599 77.5524 219.336 77.5524 219.117C77.5576 218.893 77.5628 218.69 77.5681 218.508C77.5785 218.32 77.5915 218.13 77.6071 217.938C77.4457 218.104 77.2946 218.247 77.154 218.367C77.0134 218.482 76.8389 218.625 76.6306 218.797L75.3259 219.844L74.6462 218.961L77.7399 216.578H78.8181V228ZM90.6462 221.445C90.6462 222.138 90.5967 222.812 90.4977 223.469C90.404 224.125 90.2399 224.737 90.0056 225.305C89.7764 225.872 89.4639 226.37 89.0681 226.797C88.6722 227.224 88.1748 227.56 87.5759 227.805C86.9821 228.044 86.2712 228.164 85.4431 228.164C85.2191 228.164 84.9639 228.148 84.6774 228.117C84.391 228.091 84.1566 228.052 83.9743 228V226.875C84.167 226.943 84.3936 226.997 84.654 227.039C84.9144 227.076 85.1696 227.094 85.4196 227.094C86.3936 227.094 87.1592 226.885 87.7165 226.469C88.2738 226.047 88.6748 225.477 88.9196 224.758C89.1644 224.034 89.3024 223.221 89.3337 222.32H89.2399C89.0837 222.57 88.878 222.802 88.6227 223.016C88.3727 223.224 88.0681 223.393 87.7087 223.523C87.3493 223.648 86.93 223.711 86.4509 223.711C85.7894 223.711 85.2113 223.576 84.7165 223.305C84.2269 223.034 83.8441 222.641 83.5681 222.125C83.2972 221.609 83.1618 220.987 83.1618 220.258C83.1618 219.471 83.3102 218.792 83.6071 218.219C83.9092 217.641 84.3311 217.195 84.8727 216.883C85.4144 216.57 86.0524 216.414 86.7868 216.414C87.3493 216.414 87.8649 216.521 88.3337 216.734C88.8024 216.948 89.2087 217.268 89.5524 217.695C89.9014 218.117 90.1696 218.641 90.3571 219.266C90.5498 219.891 90.6462 220.617 90.6462 221.445ZM86.7868 217.516C86.0941 217.516 85.5316 217.742 85.0993 218.195C84.6722 218.648 84.4587 219.331 84.4587 220.242C84.4587 220.997 84.6436 221.594 85.0134 222.031C85.3832 222.469 85.9535 222.688 86.7243 222.688C87.2556 222.688 87.7139 222.581 88.0993 222.367C88.4899 222.154 88.7894 221.883 88.9977 221.555C89.2113 221.227 89.3181 220.891 89.3181 220.547C89.3181 220.203 89.266 219.854 89.1618 219.5C89.0628 219.146 88.9092 218.82 88.7009 218.523C88.4925 218.221 88.2295 217.979 87.9118 217.797C87.5941 217.609 87.2191 217.516 86.7868 217.516Z" fill="#333333"/>
</g>
<g opacity="0.7">
<path d="M116.046 228H108.561V226.914L111.616 223.812C112.184 223.24 112.66 222.729 113.046 222.281C113.436 221.833 113.733 221.393 113.936 220.961C114.14 220.523 114.241 220.044 114.241 219.523C114.241 218.878 114.048 218.385 113.663 218.047C113.283 217.703 112.78 217.531 112.155 217.531C111.608 217.531 111.124 217.625 110.702 217.812C110.28 218 109.848 218.266 109.405 218.609L108.71 217.734C109.012 217.479 109.34 217.253 109.694 217.055C110.054 216.857 110.436 216.701 110.843 216.586C111.254 216.471 111.692 216.414 112.155 216.414C112.858 216.414 113.465 216.536 113.975 216.781C114.486 217.026 114.879 217.375 115.155 217.828C115.436 218.281 115.577 218.82 115.577 219.445C115.577 220.049 115.457 220.612 115.218 221.133C114.978 221.648 114.642 222.161 114.21 222.672C113.778 223.177 113.272 223.714 112.694 224.281L110.21 226.758V226.812H116.046V228ZM125.265 222.273C125.265 223.201 125.194 224.029 125.054 224.758C124.913 225.487 124.692 226.104 124.39 226.609C124.087 227.115 123.697 227.5 123.218 227.766C122.738 228.026 122.163 228.156 121.491 228.156C120.642 228.156 119.939 227.924 119.382 227.461C118.83 226.997 118.416 226.328 118.14 225.453C117.869 224.573 117.733 223.513 117.733 222.273C117.733 221.055 117.856 220.008 118.1 219.133C118.35 218.253 118.752 217.578 119.304 217.109C119.856 216.635 120.585 216.398 121.491 216.398C122.35 216.398 123.059 216.633 123.616 217.102C124.173 217.565 124.587 218.237 124.858 219.117C125.129 219.992 125.265 221.044 125.265 222.273ZM119.038 222.273C119.038 223.336 119.119 224.221 119.28 224.93C119.442 225.638 119.702 226.169 120.061 226.523C120.426 226.872 120.903 227.047 121.491 227.047C122.08 227.047 122.554 226.872 122.913 226.523C123.278 226.174 123.541 225.646 123.702 224.938C123.869 224.229 123.952 223.341 123.952 222.273C123.952 221.227 123.871 220.352 123.71 219.648C123.548 218.94 123.288 218.409 122.929 218.055C122.569 217.695 122.09 217.516 121.491 217.516C120.892 217.516 120.413 217.695 120.054 218.055C119.694 218.409 119.434 218.94 119.272 219.648C119.116 220.352 119.038 221.227 119.038 222.273Z" fill="#333333"/>
</g>
<path d="M150.617 228H143.133V226.914L146.188 223.812C146.755 223.24 147.232 222.729 147.617 222.281C148.008 221.833 148.305 221.393 148.508 220.961C148.711 220.523 148.812 220.044 148.812 219.523C148.812 218.878 148.62 218.385 148.234 218.047C147.854 217.703 147.352 217.531 146.727 217.531C146.18 217.531 145.695 217.625 145.273 217.812C144.852 218 144.419 218.266 143.977 218.609L143.281 217.734C143.583 217.479 143.911 217.253 144.266 217.055C144.625 216.857 145.008 216.701 145.414 216.586C145.826 216.471 146.263 216.414 146.727 216.414C147.43 216.414 148.036 216.536 148.547 216.781C149.057 217.026 149.451 217.375 149.727 217.828C150.008 218.281 150.148 218.82 150.148 219.445C150.148 220.049 150.029 220.612 149.789 221.133C149.549 221.648 149.214 222.161 148.781 222.672C148.349 223.177 147.844 223.714 147.266 224.281L144.781 226.758V226.812H150.617V228ZM157.117 228H155.852V219.906C155.852 219.599 155.852 219.336 155.852 219.117C155.857 218.893 155.862 218.69 155.867 218.508C155.878 218.32 155.891 218.13 155.906 217.938C155.745 218.104 155.594 218.247 155.453 218.367C155.312 218.482 155.138 218.625 154.93 218.797L153.625 219.844L152.945 218.961L156.039 216.578H157.117V228Z" fill="#333333"/>
<path d="M185.189 228H177.704V226.914L180.759 223.812C181.327 223.24 181.803 222.729 182.189 222.281C182.579 221.833 182.876 221.393 183.079 220.961C183.282 220.523 183.384 220.044 183.384 219.523C183.384 218.878 183.191 218.385 182.806 218.047C182.426 217.703 181.923 217.531 181.298 217.531C180.751 217.531 180.267 217.625 179.845 217.812C179.423 218 178.991 218.266 178.548 218.609L177.853 217.734C178.155 217.479 178.483 217.253 178.837 217.055C179.196 216.857 179.579 216.701 179.985 216.586C180.397 216.471 180.834 216.414 181.298 216.414C182.001 216.414 182.608 216.536 183.118 216.781C183.629 217.026 184.022 217.375 184.298 217.828C184.579 218.281 184.72 218.82 184.72 219.445C184.72 220.049 184.6 220.612 184.36 221.133C184.121 221.648 183.785 222.161 183.353 222.672C182.92 223.177 182.415 223.714 181.837 224.281L179.353 226.758V226.812H185.189V228ZM194.345 228H186.86V226.914L189.915 223.812C190.483 223.24 190.959 222.729 191.345 222.281C191.735 221.833 192.032 221.393 192.235 220.961C192.439 220.523 192.54 220.044 192.54 219.523C192.54 218.878 192.347 218.385 191.962 218.047C191.582 217.703 191.079 217.531 190.454 217.531C189.907 217.531 189.423 217.625 189.001 217.812C188.579 218 188.147 218.266 187.704 218.609L187.009 217.734C187.311 217.479 187.639 217.253 187.993 217.055C188.353 216.857 188.735 216.701 189.142 216.586C189.553 216.471 189.991 216.414 190.454 216.414C191.157 216.414 191.764 216.536 192.275 216.781C192.785 217.026 193.178 217.375 193.454 217.828C193.735 218.281 193.876 218.82 193.876 219.445C193.876 220.049 193.756 220.612 193.517 221.133C193.277 221.648 192.941 222.161 192.509 222.672C192.077 223.177 191.571 223.714 190.993 224.281L188.509 226.758V226.812H194.345V228Z" fill="#333333"/>
<rect x="203.357" y="206" width="34.5714" height="32" rx="8" fill="#FA8B02"/>
<path d="M219.76 228H212.276V226.914L215.33 223.812C215.898 223.24 216.375 222.729 216.76 222.281C217.151 221.833 217.448 221.393 217.651 220.961C217.854 220.523 217.955 220.044 217.955 219.523C217.955 218.878 217.763 218.385 217.377 218.047C216.997 217.703 216.494 217.531 215.869 217.531C215.323 217.531 214.838 217.625 214.416 217.812C213.994 218 213.562 218.266 213.119 218.609L212.424 217.734C212.726 217.479 213.054 217.253 213.409 217.055C213.768 216.857 214.151 216.701 214.557 216.586C214.968 216.471 215.406 216.414 215.869 216.414C216.573 216.414 217.179 216.536 217.69 216.781C218.2 217.026 218.593 217.375 218.869 217.828C219.151 218.281 219.291 218.82 219.291 219.445C219.291 220.049 219.172 220.612 218.932 221.133C218.692 221.648 218.356 222.161 217.924 222.672C217.492 223.177 216.987 223.714 216.409 224.281L213.924 226.758V226.812H219.76V228ZM228.494 219.242C228.494 219.753 228.395 220.195 228.198 220.57C228 220.945 227.724 221.253 227.369 221.492C227.015 221.727 226.599 221.891 226.119 221.984V222.047C227.026 222.161 227.705 222.453 228.159 222.922C228.617 223.391 228.846 224.005 228.846 224.766C228.846 225.427 228.69 226.013 228.377 226.523C228.07 227.034 227.596 227.435 226.955 227.727C226.32 228.013 225.505 228.156 224.51 228.156C223.906 228.156 223.346 228.107 222.83 228.008C222.32 227.914 221.83 227.755 221.362 227.531V226.312C221.836 226.547 222.351 226.732 222.909 226.867C223.466 226.997 224.005 227.062 224.526 227.062C225.567 227.062 226.32 226.857 226.784 226.445C227.247 226.029 227.479 225.461 227.479 224.742C227.479 224.247 227.349 223.849 227.088 223.547C226.833 223.24 226.463 223.016 225.979 222.875C225.5 222.729 224.922 222.656 224.244 222.656H223.104V221.547H224.252C224.872 221.547 225.398 221.456 225.83 221.273C226.263 221.091 226.591 220.836 226.815 220.508C227.044 220.174 227.159 219.781 227.159 219.328C227.159 218.75 226.966 218.305 226.58 217.992C226.195 217.674 225.672 217.516 225.01 217.516C224.604 217.516 224.234 217.557 223.901 217.641C223.567 217.724 223.255 217.839 222.963 217.984C222.672 218.13 222.38 218.299 222.088 218.492L221.432 217.602C221.849 217.279 222.356 217 222.955 216.766C223.554 216.531 224.234 216.414 224.994 216.414C226.161 216.414 227.036 216.68 227.619 217.211C228.203 217.742 228.494 218.419 228.494 219.242Z" fill="white"/>
<path d="M254.331 228H246.847V226.914L249.902 223.812C250.47 223.24 250.946 222.729 251.331 222.281C251.722 221.833 252.019 221.393 252.222 220.961C252.425 220.523 252.527 220.044 252.527 219.523C252.527 218.878 252.334 218.385 251.949 218.047C251.568 217.703 251.066 217.531 250.441 217.531C249.894 217.531 249.41 217.625 248.988 217.812C248.566 218 248.134 218.266 247.691 218.609L246.996 217.734C247.298 217.479 247.626 217.253 247.98 217.055C248.339 216.857 248.722 216.701 249.128 216.586C249.54 216.471 249.977 216.414 250.441 216.414C251.144 216.414 251.751 216.536 252.261 216.781C252.772 217.026 253.165 217.375 253.441 217.828C253.722 218.281 253.863 218.82 253.863 219.445C253.863 220.049 253.743 220.612 253.503 221.133C253.264 221.648 252.928 222.161 252.496 222.672C252.063 223.177 251.558 223.714 250.98 224.281L248.496 226.758V226.812H254.331V228ZM264.058 225.352H262.347V228H261.081V225.352H255.558V224.258L260.996 216.516H262.347V224.18H264.058V225.352ZM261.081 224.18V220.445C261.081 220.159 261.084 219.901 261.089 219.672C261.095 219.438 261.102 219.221 261.113 219.023C261.123 218.82 261.131 218.628 261.136 218.445C261.147 218.263 261.154 218.083 261.16 217.906H261.097C260.998 218.115 260.884 218.336 260.753 218.57C260.628 218.799 260.501 219.005 260.371 219.188L256.847 224.18H261.081Z" fill="#333333"/>
<g opacity="0.7">
<path d="M46.9029 264H39.4185V262.914L42.4732 259.812C43.0409 259.24 43.5175 258.729 43.9029 258.281C44.2935 257.833 44.5904 257.393 44.7935 256.961C44.9966 256.523 45.0982 256.044 45.0982 255.523C45.0982 254.878 44.9055 254.385 44.5201 254.047C44.1399 253.703 43.6373 253.531 43.0123 253.531C42.4654 253.531 41.981 253.625 41.5591 253.812C41.1373 254 40.705 254.266 40.2623 254.609L39.567 253.734C39.869 253.479 40.1972 253.253 40.5513 253.055C40.9107 252.857 41.2935 252.701 41.6998 252.586C42.1112 252.471 42.5487 252.414 43.0123 252.414C43.7154 252.414 44.3222 252.536 44.8326 252.781C45.343 253.026 45.7362 253.375 46.0123 253.828C46.2935 254.281 46.4341 254.82 46.4341 255.445C46.4341 256.049 46.3144 256.612 46.0748 257.133C45.8352 257.648 45.4992 258.161 45.067 258.672C44.6347 259.177 44.1295 259.714 43.5513 260.281L41.067 262.758V262.812H46.9029V264ZM52.1841 257.016C52.9602 257.016 53.6347 257.148 54.2076 257.414C54.7805 257.674 55.2232 258.055 55.5357 258.555C55.8534 259.055 56.0123 259.661 56.0123 260.375C56.0123 261.156 55.843 261.831 55.5045 262.398C55.1659 262.961 54.6789 263.396 54.0435 263.703C53.4081 264.005 52.6477 264.156 51.7623 264.156C51.1685 264.156 50.6164 264.104 50.106 264C49.5956 263.896 49.1659 263.74 48.817 263.531V262.297C49.1972 262.526 49.6581 262.708 50.1998 262.844C50.7414 262.979 51.2675 263.047 51.7779 263.047C52.356 263.047 52.8612 262.956 53.2935 262.773C53.731 262.586 54.0696 262.305 54.3091 261.93C54.5539 261.549 54.6763 261.073 54.6763 260.5C54.6763 259.74 54.442 259.154 53.9732 258.742C53.5097 258.326 52.7753 258.117 51.7701 258.117C51.4472 258.117 51.093 258.143 50.7076 258.195C50.3222 258.247 50.0045 258.305 49.7545 258.367L49.0982 257.938L49.5357 252.578H55.2154V253.766H50.6451L50.356 257.211C50.5539 257.169 50.8091 257.128 51.1216 257.086C51.4341 257.039 51.7883 257.016 52.1841 257.016Z" fill="#333333"/>
<path d="M81.4743 264H73.9899V262.914L77.0446 259.812C77.6123 259.24 78.0889 258.729 78.4743 258.281C78.8649 257.833 79.1618 257.393 79.3649 256.961C79.5681 256.523 79.6696 256.044 79.6696 255.523C79.6696 254.878 79.4769 254.385 79.0915 254.047C78.7113 253.703 78.2087 253.531 77.5837 253.531C77.0368 253.531 76.5524 253.625 76.1306 253.812C75.7087 254 75.2764 254.266 74.8337 254.609L74.1384 253.734C74.4405 253.479 74.7686 253.253 75.1227 253.055C75.4821 252.857 75.8649 252.701 76.2712 252.586C76.6826 252.471 77.1201 252.414 77.5837 252.414C78.2868 252.414 78.8936 252.536 79.404 252.781C79.9144 253.026 80.3076 253.375 80.5837 253.828C80.8649 254.281 81.0056 254.82 81.0056 255.445C81.0056 256.049 80.8858 256.612 80.6462 257.133C80.4066 257.648 80.0707 258.161 79.6384 258.672C79.2061 259.177 78.7009 259.714 78.1227 260.281L75.6384 262.758V262.812H81.4743V264ZM83.2634 259.117C83.2634 258.43 83.3102 257.758 83.404 257.102C83.503 256.445 83.667 255.836 83.8962 255.273C84.1253 254.706 84.4378 254.208 84.8337 253.781C85.2295 253.354 85.7217 253.021 86.3102 252.781C86.904 252.536 87.6149 252.414 88.4431 252.414C88.6774 252.414 88.93 252.427 89.2009 252.453C89.4717 252.474 89.6957 252.51 89.8727 252.562V253.68C89.68 253.612 89.4587 253.562 89.2087 253.531C88.9639 253.5 88.7165 253.484 88.4665 253.484C87.4977 253.484 86.7347 253.695 86.1774 254.117C85.6253 254.539 85.2269 255.112 84.9821 255.836C84.7373 256.555 84.5967 257.365 84.5602 258.266H84.6462C84.8076 258.005 85.0134 257.771 85.2634 257.562C85.5134 257.349 85.8155 257.18 86.1696 257.055C86.529 256.93 86.9457 256.867 87.4196 256.867C88.0863 256.867 88.667 257.003 89.1618 257.273C89.6618 257.544 90.0472 257.938 90.3181 258.453C90.5941 258.969 90.7321 259.594 90.7321 260.328C90.7321 261.115 90.5863 261.794 90.2946 262.367C90.003 262.94 89.5863 263.383 89.0446 263.695C88.5082 264.003 87.8675 264.156 87.1227 264.156C86.5655 264.156 86.0524 264.049 85.5837 263.836C85.1149 263.622 84.7061 263.305 84.3571 262.883C84.0134 262.461 83.7451 261.938 83.5524 261.312C83.3597 260.682 83.2634 259.951 83.2634 259.117ZM87.1071 263.062C87.8155 263.062 88.3832 262.836 88.8102 262.383C89.2373 261.93 89.4509 261.245 89.4509 260.328C89.4509 259.578 89.2608 258.984 88.8806 258.547C88.5003 258.109 87.9274 257.891 87.1618 257.891C86.641 257.891 86.1878 258 85.8024 258.219C85.417 258.432 85.1175 258.703 84.904 259.031C84.6905 259.359 84.5837 259.693 84.5837 260.031C84.5837 260.375 84.6332 260.724 84.7321 261.078C84.8363 261.432 84.9925 261.76 85.2009 262.062C85.4092 262.365 85.6722 262.607 85.9899 262.789C86.3076 262.971 86.68 263.062 87.1071 263.062Z" fill="#333333"/>
<path d="M116.046 264H108.561V262.914L111.616 259.812C112.184 259.24 112.66 258.729 113.046 258.281C113.436 257.833 113.733 257.393 113.936 256.961C114.14 256.523 114.241 256.044 114.241 255.523C114.241 254.878 114.048 254.385 113.663 254.047C113.283 253.703 112.78 253.531 112.155 253.531C111.608 253.531 111.124 253.625 110.702 253.812C110.28 254 109.848 254.266 109.405 254.609L108.71 253.734C109.012 253.479 109.34 253.253 109.694 253.055C110.054 252.857 110.436 252.701 110.843 252.586C111.254 252.471 111.692 252.414 112.155 252.414C112.858 252.414 113.465 252.536 113.975 252.781C114.486 253.026 114.879 253.375 115.155 253.828C115.436 254.281 115.577 254.82 115.577 255.445C115.577 256.049 115.457 256.612 115.218 257.133C114.978 257.648 114.642 258.161 114.21 258.672C113.778 259.177 113.272 259.714 112.694 260.281L110.21 262.758V262.812H116.046V264ZM119.194 264L123.882 253.766H117.655V252.578H125.272V253.578L120.616 264H119.194Z" fill="#333333"/>
<path d="M150.617 264H143.133V262.914L146.188 259.812C146.755 259.24 147.232 258.729 147.617 258.281C148.008 257.833 148.305 257.393 148.508 256.961C148.711 256.523 148.812 256.044 148.812 255.523C148.812 254.878 148.62 254.385 148.234 254.047C147.854 253.703 147.352 253.531 146.727 253.531C146.18 253.531 145.695 253.625 145.273 253.812C144.852 254 144.419 254.266 143.977 254.609L143.281 253.734C143.583 253.479 143.911 253.253 144.266 253.055C144.625 252.857 145.008 252.701 145.414 252.586C145.826 252.471 146.263 252.414 146.727 252.414C147.43 252.414 148.036 252.536 148.547 252.781C149.057 253.026 149.451 253.375 149.727 253.828C150.008 254.281 150.148 254.82 150.148 255.445C150.148 256.049 150.029 256.612 149.789 257.133C149.549 257.648 149.214 258.161 148.781 258.672C148.349 259.177 147.844 259.714 147.266 260.281L144.781 262.758V262.812H150.617V264ZM156.062 252.414C156.724 252.414 157.31 252.518 157.82 252.727C158.331 252.935 158.729 253.242 159.016 253.648C159.307 254.049 159.453 254.544 159.453 255.133C159.453 255.596 159.352 256.003 159.148 256.352C158.951 256.695 158.682 256.997 158.344 257.258C158.005 257.513 157.63 257.742 157.219 257.945C157.708 258.169 158.148 258.422 158.539 258.703C158.935 258.984 159.247 259.315 159.477 259.695C159.706 260.076 159.82 260.526 159.82 261.047C159.82 261.688 159.664 262.242 159.352 262.711C159.044 263.174 158.612 263.531 158.055 263.781C157.497 264.031 156.844 264.156 156.094 264.156C155.286 264.156 154.599 264.036 154.031 263.797C153.469 263.552 153.039 263.203 152.742 262.75C152.451 262.292 152.305 261.742 152.305 261.102C152.305 260.576 152.417 260.12 152.641 259.734C152.865 259.344 153.161 259.008 153.531 258.727C153.901 258.445 154.305 258.208 154.742 258.016C154.362 257.807 154.013 257.57 153.695 257.305C153.383 257.039 153.133 256.729 152.945 256.375C152.763 256.016 152.672 255.599 152.672 255.125C152.672 254.547 152.818 254.057 153.109 253.656C153.406 253.25 153.81 252.943 154.32 252.734C154.836 252.521 155.417 252.414 156.062 252.414ZM153.578 261.109C153.578 261.693 153.784 262.174 154.195 262.555C154.607 262.93 155.229 263.117 156.062 263.117C156.854 263.117 157.466 262.93 157.898 262.555C158.331 262.174 158.547 261.677 158.547 261.062C158.547 260.682 158.448 260.349 158.25 260.062C158.052 259.771 157.771 259.51 157.406 259.281C157.042 259.052 156.612 258.844 156.117 258.656L155.836 258.555C155.357 258.753 154.948 258.974 154.609 259.219C154.276 259.458 154.021 259.732 153.844 260.039C153.667 260.346 153.578 260.703 153.578 261.109ZM156.047 253.477C155.432 253.477 154.93 253.625 154.539 253.922C154.148 254.214 153.953 254.635 153.953 255.188C153.953 255.583 154.047 255.919 154.234 256.195C154.427 256.466 154.688 256.701 155.016 256.898C155.344 257.091 155.711 257.271 156.117 257.438C156.513 257.271 156.865 257.089 157.172 256.891C157.479 256.688 157.721 256.448 157.898 256.172C158.076 255.896 158.164 255.565 158.164 255.18C158.164 254.628 157.969 254.206 157.578 253.914C157.193 253.622 156.682 253.477 156.047 253.477Z" fill="#333333"/>
<path d="M185.189 264H177.704V262.914L180.759 259.812C181.327 259.24 181.803 258.729 182.189 258.281C182.579 257.833 182.876 257.393 183.079 256.961C183.282 256.523 183.384 256.044 183.384 255.523C183.384 254.878 183.191 254.385 182.806 254.047C182.426 253.703 181.923 253.531 181.298 253.531C180.751 253.531 180.267 253.625 179.845 253.812C179.423 254 178.991 254.266 178.548 254.609L177.853 253.734C178.155 253.479 178.483 253.253 178.837 253.055C179.196 252.857 179.579 252.701 179.985 252.586C180.397 252.471 180.834 252.414 181.298 252.414C182.001 252.414 182.608 252.536 183.118 252.781C183.629 253.026 184.022 253.375 184.298 253.828C184.579 254.281 184.72 254.82 184.72 255.445C184.72 256.049 184.6 256.612 184.36 257.133C184.121 257.648 183.785 258.161 183.353 258.672C182.92 259.177 182.415 259.714 181.837 260.281L179.353 262.758V262.812H185.189V264ZM194.36 257.445C194.36 258.138 194.311 258.812 194.212 259.469C194.118 260.125 193.954 260.737 193.72 261.305C193.491 261.872 193.178 262.37 192.782 262.797C192.387 263.224 191.889 263.56 191.29 263.805C190.696 264.044 189.985 264.164 189.157 264.164C188.933 264.164 188.678 264.148 188.392 264.117C188.105 264.091 187.871 264.052 187.689 264V262.875C187.881 262.943 188.108 262.997 188.368 263.039C188.629 263.076 188.884 263.094 189.134 263.094C190.108 263.094 190.873 262.885 191.431 262.469C191.988 262.047 192.389 261.477 192.634 260.758C192.879 260.034 193.017 259.221 193.048 258.32H192.954C192.798 258.57 192.592 258.802 192.337 259.016C192.087 259.224 191.782 259.393 191.423 259.523C191.064 259.648 190.644 259.711 190.165 259.711C189.504 259.711 188.926 259.576 188.431 259.305C187.941 259.034 187.558 258.641 187.282 258.125C187.012 257.609 186.876 256.987 186.876 256.258C186.876 255.471 187.025 254.792 187.321 254.219C187.623 253.641 188.045 253.195 188.587 252.883C189.129 252.57 189.767 252.414 190.501 252.414C191.064 252.414 191.579 252.521 192.048 252.734C192.517 252.948 192.923 253.268 193.267 253.695C193.616 254.117 193.884 254.641 194.071 255.266C194.264 255.891 194.36 256.617 194.36 257.445ZM190.501 253.516C189.808 253.516 189.246 253.742 188.814 254.195C188.387 254.648 188.173 255.331 188.173 256.242C188.173 256.997 188.358 257.594 188.728 258.031C189.097 258.469 189.668 258.688 190.439 258.688C190.97 258.688 191.428 258.581 191.814 258.367C192.204 258.154 192.504 257.883 192.712 257.555C192.926 257.227 193.032 256.891 193.032 256.547C193.032 256.203 192.98 255.854 192.876 255.5C192.777 255.146 192.623 254.82 192.415 254.523C192.207 254.221 191.944 253.979 191.626 253.797C191.308 253.609 190.933 253.516 190.501 253.516Z" fill="#333333"/>
<path d="M219.338 255.242C219.338 255.753 219.239 256.195 219.041 256.57C218.843 256.945 218.567 257.253 218.213 257.492C217.859 257.727 217.442 257.891 216.963 257.984V258.047C217.869 258.161 218.549 258.453 219.002 258.922C219.461 259.391 219.69 260.005 219.69 260.766C219.69 261.427 219.534 262.013 219.221 262.523C218.914 263.034 218.44 263.435 217.799 263.727C217.164 264.013 216.349 264.156 215.354 264.156C214.75 264.156 214.19 264.107 213.674 264.008C213.164 263.914 212.674 263.755 212.205 263.531V262.312C212.679 262.547 213.195 262.732 213.752 262.867C214.31 262.997 214.849 263.062 215.369 263.062C216.411 263.062 217.164 262.857 217.627 262.445C218.091 262.029 218.323 261.461 218.323 260.742C218.323 260.247 218.192 259.849 217.932 259.547C217.677 259.24 217.307 259.016 216.823 258.875C216.343 258.729 215.765 258.656 215.088 258.656H213.948V257.547H215.096C215.716 257.547 216.242 257.456 216.674 257.273C217.106 257.091 217.435 256.836 217.659 256.508C217.888 256.174 218.002 255.781 218.002 255.328C218.002 254.75 217.81 254.305 217.424 253.992C217.039 253.674 216.515 253.516 215.854 253.516C215.448 253.516 215.078 253.557 214.744 253.641C214.411 253.724 214.099 253.839 213.807 253.984C213.515 254.13 213.224 254.299 212.932 254.492L212.276 253.602C212.692 253.279 213.2 253 213.799 252.766C214.398 252.531 215.078 252.414 215.838 252.414C217.005 252.414 217.88 252.68 218.463 253.211C219.047 253.742 219.338 254.419 219.338 255.242ZM228.979 258.273C228.979 259.201 228.909 260.029 228.768 260.758C228.627 261.487 228.406 262.104 228.104 262.609C227.802 263.115 227.411 263.5 226.932 263.766C226.453 264.026 225.877 264.156 225.205 264.156C224.356 264.156 223.653 263.924 223.096 263.461C222.544 262.997 222.13 262.328 221.854 261.453C221.583 260.573 221.448 259.513 221.448 258.273C221.448 257.055 221.57 256.008 221.815 255.133C222.065 254.253 222.466 253.578 223.018 253.109C223.57 252.635 224.299 252.398 225.205 252.398C226.065 252.398 226.773 252.633 227.33 253.102C227.888 253.565 228.302 254.237 228.573 255.117C228.843 255.992 228.979 257.044 228.979 258.273ZM222.752 258.273C222.752 259.336 222.833 260.221 222.994 260.93C223.156 261.638 223.416 262.169 223.776 262.523C224.14 262.872 224.617 263.047 225.205 263.047C225.794 263.047 226.268 262.872 226.627 262.523C226.992 262.174 227.255 261.646 227.416 260.938C227.583 260.229 227.666 259.341 227.666 258.273C227.666 257.227 227.586 256.352 227.424 255.648C227.263 254.94 227.002 254.409 226.643 254.055C226.284 253.695 225.804 253.516 225.205 253.516C224.606 253.516 224.127 253.695 223.768 254.055C223.409 254.409 223.148 254.94 222.987 255.648C222.83 256.352 222.752 257.227 222.752 258.273Z" fill="#333333"/>
</g>
</svg>
