<svg width="25" height="24" viewBox="0 0 25 24" fill="none" xmlns="http://www.w3.org/2000/svg">
<path d="M12.6 23C11.0566 21.6835 9.62596 20.2402 8.32309 18.6852C6.36791 16.35 4.04614 12.8722 4.04614 9.55818C4.0453 7.86568 4.54656 6.21097 5.48649 4.80347C6.42642 3.39596 7.76277 2.29893 9.32642 1.6512C10.8901 1.00348 12.6107 0.834177 14.2706 1.16473C15.9305 1.49527 17.4551 2.31081 18.6513 3.50813C19.4477 4.30103 20.079 5.24401 20.5086 6.28249C20.9381 7.32098 21.1575 8.43435 21.1539 9.55818C21.1539 12.8722 18.8322 16.35 16.877 18.6852C15.5741 20.2402 14.1435 21.6835 12.6 23ZM12.6 5.89222C11.6278 5.89222 10.6953 6.27846 10.0078 6.96596C9.32031 7.65346 8.93408 8.58591 8.93408 9.55818C8.93408 10.5304 9.32031 11.4629 10.0078 12.1504C10.6953 12.8379 11.6278 13.2241 12.6 13.2241C13.5723 13.2241 14.5048 12.8379 15.1923 12.1504C15.8798 11.4629 16.266 10.5304 16.266 9.55818C16.266 8.58591 15.8798 7.65346 15.1923 6.96596C14.5048 6.27846 13.5723 5.89222 12.6 5.89222Z" fill="#FA8B02"/>
</svg>
