<svg width="304" height="54" viewBox="0 0 304 54" fill="none" xmlns="http://www.w3.org/2000/svg">
<rect x="1" y="1" width="302" height="52" rx="8" fill="white"/>
<rect x="1" y="1" width="302" height="52" rx="8" stroke="#333333" stroke-opacity="0.2"/>
<path opacity="0.5" d="M33.0078 28.9609C33.0078 29.638 32.8385 30.2161 32.5 30.6953C32.1667 31.1693 31.6979 31.5312 31.0938 31.7812C30.4896 32.0312 29.7786 32.1562 28.9609 32.1562C28.5286 32.1562 28.1198 32.1354 27.7344 32.0938C27.349 32.0521 26.9948 31.9922 26.6719 31.9141C26.349 31.8359 26.0651 31.7396 25.8203 31.625V30.3516C26.2109 30.513 26.6875 30.6641 27.25 30.8047C27.8125 30.9401 28.401 31.0078 29.0156 31.0078C29.5885 31.0078 30.0729 30.9323 30.4688 30.7812C30.8646 30.625 31.1641 30.4036 31.3672 30.1172C31.5755 29.8255 31.6797 29.4766 31.6797 29.0703C31.6797 28.6797 31.5938 28.3542 31.4219 28.0938C31.25 27.8281 30.9635 27.5885 30.5625 27.375C30.1667 27.1562 29.625 26.9245 28.9375 26.6797C28.4531 26.5078 28.026 26.3203 27.6562 26.1172C27.2865 25.9089 26.9766 25.6745 26.7266 25.4141C26.4766 25.1536 26.2865 24.8516 26.1562 24.5078C26.0312 24.1641 25.9688 23.7708 25.9688 23.3281C25.9688 22.7188 26.1224 22.1979 26.4297 21.7656C26.7422 21.3281 27.1719 20.9948 27.7188 20.7656C28.2708 20.5312 28.9036 20.4141 29.6172 20.4141C30.2266 20.4141 30.7891 20.4714 31.3047 20.5859C31.8255 20.7005 32.3021 20.8542 32.7344 21.0469L32.3203 22.1875C31.9089 22.0156 31.4714 21.8724 31.0078 21.7578C30.5495 21.6432 30.0755 21.5859 29.5859 21.5859C29.0964 21.5859 28.6823 21.6589 28.3438 21.8047C28.0104 21.9453 27.7552 22.1458 27.5781 22.4062C27.401 22.6667 27.3125 22.9766 27.3125 23.3359C27.3125 23.737 27.3958 24.0703 27.5625 24.3359C27.7344 24.6016 28.0052 24.8385 28.375 25.0469C28.75 25.25 29.2448 25.4635 29.8594 25.6875C30.5312 25.9323 31.1016 26.1927 31.5703 26.4688C32.0391 26.7396 32.3958 27.0729 32.6406 27.4688C32.8854 27.8594 33.0078 28.3568 33.0078 28.9609ZM38.4453 23.2812C39.1745 23.2812 39.7995 23.4427 40.3203 23.7656C40.8411 24.0885 41.2396 24.5417 41.5156 25.125C41.7917 25.7031 41.9297 26.3802 41.9297 27.1562V27.9609H36.0156C36.0312 28.9661 36.2812 29.7318 36.7656 30.2578C37.25 30.7839 37.9323 31.0469 38.8125 31.0469C39.3542 31.0469 39.8333 30.9974 40.25 30.8984C40.6667 30.7995 41.099 30.6536 41.5469 30.4609V31.6016C41.1146 31.7943 40.6849 31.9349 40.2578 32.0234C39.8359 32.112 39.3359 32.1562 38.7578 32.1562C37.9349 32.1562 37.2161 31.9896 36.6016 31.6562C35.9922 31.3177 35.5182 30.8229 35.1797 30.1719C34.8411 29.5208 34.6719 28.724 34.6719 27.7812C34.6719 26.8594 34.8255 26.0625 35.1328 25.3906C35.4453 24.7135 35.8828 24.1927 36.4453 23.8281C37.013 23.4635 37.6797 23.2812 38.4453 23.2812ZM38.4297 24.3438C37.737 24.3438 37.1849 24.5703 36.7734 25.0234C36.362 25.4766 36.1172 26.1094 36.0391 26.9219H40.5703C40.5651 26.4115 40.4844 25.9635 40.3281 25.5781C40.1771 25.1875 39.9453 24.8854 39.6328 24.6719C39.3203 24.4531 38.9193 24.3438 38.4297 24.3438ZM45.4375 32H44.1328V19.8438H45.4375V32ZM51.4766 23.2812C52.2057 23.2812 52.8307 23.4427 53.3516 23.7656C53.8724 24.0885 54.2708 24.5417 54.5469 25.125C54.8229 25.7031 54.9609 26.3802 54.9609 27.1562V27.9609H49.0469C49.0625 28.9661 49.3125 29.7318 49.7969 30.2578C50.2812 30.7839 50.9635 31.0469 51.8438 31.0469C52.3854 31.0469 52.8646 30.9974 53.2812 30.8984C53.6979 30.7995 54.1302 30.6536 54.5781 30.4609V31.6016C54.1458 31.7943 53.7161 31.9349 53.2891 32.0234C52.8672 32.112 52.3672 32.1562 51.7891 32.1562C50.9661 32.1562 50.2474 31.9896 49.6328 31.6562C49.0234 31.3177 48.5495 30.8229 48.2109 30.1719C47.8724 29.5208 47.7031 28.724 47.7031 27.7812C47.7031 26.8594 47.8568 26.0625 48.1641 25.3906C48.4766 24.7135 48.9141 24.1927 49.4766 23.8281C50.0443 23.4635 50.7109 23.2812 51.4766 23.2812ZM51.4609 24.3438C50.7682 24.3438 50.2161 24.5703 49.8047 25.0234C49.3932 25.4766 49.1484 26.1094 49.0703 26.9219H53.6016C53.5964 26.4115 53.5156 25.9635 53.3594 25.5781C53.2083 25.1875 52.9766 24.8854 52.6641 24.6719C52.3516 24.4531 51.9505 24.3438 51.4609 24.3438ZM60.5938 32.1562C59.8229 32.1562 59.1432 31.9974 58.5547 31.6797C57.9661 31.362 57.5078 30.8776 57.1797 30.2266C56.8516 29.5755 56.6875 28.7552 56.6875 27.7656C56.6875 26.7292 56.8594 25.8828 57.2031 25.2266C57.5521 24.5651 58.0312 24.0755 58.6406 23.7578C59.25 23.4401 59.9427 23.2812 60.7188 23.2812C61.1458 23.2812 61.5573 23.3255 61.9531 23.4141C62.3542 23.4974 62.6823 23.6042 62.9375 23.7344L62.5469 24.8203C62.2865 24.7161 61.9844 24.6224 61.6406 24.5391C61.3021 24.4557 60.9844 24.4141 60.6875 24.4141C60.0938 24.4141 59.599 24.5417 59.2031 24.7969C58.8125 25.0521 58.5182 25.4271 58.3203 25.9219C58.1276 26.4167 58.0312 27.026 58.0312 27.75C58.0312 28.4427 58.125 29.0339 58.3125 29.5234C58.5052 30.013 58.7891 30.388 59.1641 30.6484C59.5443 30.9036 60.0182 31.0312 60.5859 31.0312C61.0391 31.0312 61.4479 30.9844 61.8125 30.8906C62.1771 30.7917 62.5078 30.6771 62.8047 30.5469V31.7031C62.5182 31.849 62.1979 31.9609 61.8438 32.0391C61.4948 32.1172 61.0781 32.1562 60.5938 32.1562ZM67.6016 31.0938C67.8151 31.0938 68.0339 31.0755 68.2578 31.0391C68.4818 31.0026 68.6641 30.9583 68.8047 30.9062V31.9141C68.6536 31.9818 68.4427 32.0391 68.1719 32.0859C67.9062 32.1328 67.6458 32.1562 67.3906 32.1562C66.9375 32.1562 66.526 32.0781 66.1562 31.9219C65.7865 31.7604 65.4896 31.4896 65.2656 31.1094C65.0469 30.7292 64.9375 30.2031 64.9375 29.5312V24.4531H63.7188V23.8203L64.9453 23.3125L65.4609 21.4531H66.2422V23.4375H68.75V24.4531H66.2422V29.4922C66.2422 30.0286 66.3646 30.4297 66.6094 30.6953C66.8594 30.9609 67.1901 31.0938 67.6016 31.0938ZM77.4609 31.0938C77.6745 31.0938 77.8932 31.0755 78.1172 31.0391C78.3411 31.0026 78.5234 30.9583 78.6641 30.9062V31.9141C78.513 31.9818 78.3021 32.0391 78.0312 32.0859C77.7656 32.1328 77.5052 32.1562 77.25 32.1562C76.7969 32.1562 76.3854 32.0781 76.0156 31.9219C75.6458 31.7604 75.349 31.4896 75.125 31.1094C74.9062 30.7292 74.7969 30.2031 74.7969 29.5312V24.4531H73.5781V23.8203L74.8047 23.3125L75.3203 21.4531H76.1016V23.4375H78.6094V24.4531H76.1016V29.4922C76.1016 30.0286 76.224 30.4297 76.4688 30.6953C76.7188 30.9609 77.0495 31.0938 77.4609 31.0938ZM81.6953 19.8438V23.4766C81.6953 23.6849 81.6901 23.8958 81.6797 24.1094C81.6693 24.3177 81.651 24.5104 81.625 24.6875H81.7109C81.888 24.3854 82.112 24.1328 82.3828 23.9297C82.6589 23.7214 82.9714 23.5651 83.3203 23.4609C83.6693 23.3516 84.0391 23.2969 84.4297 23.2969C85.1172 23.2969 85.6901 23.4062 86.1484 23.625C86.612 23.8438 86.9583 24.1823 87.1875 24.6406C87.4219 25.099 87.5391 25.6927 87.5391 26.4219V32H86.2578V26.5078C86.2578 25.7943 86.0938 25.2604 85.7656 24.9062C85.4427 24.5521 84.9453 24.375 84.2734 24.375C83.638 24.375 83.1302 24.4974 82.75 24.7422C82.375 24.9818 82.1042 25.3359 81.9375 25.8047C81.776 26.2734 81.6953 26.8464 81.6953 27.5234V32H80.3984V19.8438H81.6953ZM93.5078 23.2812C94.237 23.2812 94.862 23.4427 95.3828 23.7656C95.9036 24.0885 96.3021 24.5417 96.5781 25.125C96.8542 25.7031 96.9922 26.3802 96.9922 27.1562V27.9609H91.0781C91.0938 28.9661 91.3438 29.7318 91.8281 30.2578C92.3125 30.7839 92.9948 31.0469 93.875 31.0469C94.4167 31.0469 94.8958 30.9974 95.3125 30.8984C95.7292 30.7995 96.1615 30.6536 96.6094 30.4609V31.6016C96.1771 31.7943 95.7474 31.9349 95.3203 32.0234C94.8984 32.112 94.3984 32.1562 93.8203 32.1562C92.9974 32.1562 92.2786 31.9896 91.6641 31.6562C91.0547 31.3177 90.5807 30.8229 90.2422 30.1719C89.9036 29.5208 89.7344 28.724 89.7344 27.7812C89.7344 26.8594 89.888 26.0625 90.1953 25.3906C90.5078 24.7135 90.9453 24.1927 91.5078 23.8281C92.0755 23.4635 92.7422 23.2812 93.5078 23.2812ZM93.4922 24.3438C92.7995 24.3438 92.2474 24.5703 91.8359 25.0234C91.4245 25.4766 91.1797 26.1094 91.1016 26.9219H95.6328C95.6276 26.4115 95.5469 25.9635 95.3906 25.5781C95.2396 25.1875 95.0078 24.8854 94.6953 24.6719C94.3828 24.4531 93.9818 24.3438 93.4922 24.3438ZM106.117 31.0938C106.331 31.0938 106.549 31.0755 106.773 31.0391C106.997 31.0026 107.18 30.9583 107.32 30.9062V31.9141C107.169 31.9818 106.958 32.0391 106.688 32.0859C106.422 32.1328 106.161 32.1562 105.906 32.1562C105.453 32.1562 105.042 32.0781 104.672 31.9219C104.302 31.7604 104.005 31.4896 103.781 31.1094C103.562 30.7292 103.453 30.2031 103.453 29.5312V24.4531H102.234V23.8203L103.461 23.3125L103.977 21.4531H104.758V23.4375H107.266V24.4531H104.758V29.4922C104.758 30.0286 104.88 30.4297 105.125 30.6953C105.375 30.9609 105.706 31.0938 106.117 31.0938ZM110.352 23.4375V32H109.055V23.4375H110.352ZM109.719 20.2344C109.932 20.2344 110.115 20.3047 110.266 20.4453C110.422 20.5807 110.5 20.7943 110.5 21.0859C110.5 21.3724 110.422 21.5859 110.266 21.7266C110.115 21.8672 109.932 21.9375 109.719 21.9375C109.495 21.9375 109.307 21.8672 109.156 21.7266C109.01 21.5859 108.938 21.3724 108.938 21.0859C108.938 20.7943 109.01 20.5807 109.156 20.4453C109.307 20.3047 109.495 20.2344 109.719 20.2344ZM122.398 23.2812C123.341 23.2812 124.052 23.5286 124.531 24.0234C125.01 24.513 125.25 25.3021 125.25 26.3906V32H123.969V26.4531C123.969 25.7604 123.818 25.2422 123.516 24.8984C123.219 24.5495 122.776 24.375 122.188 24.375C121.359 24.375 120.758 24.6146 120.383 25.0938C120.008 25.5729 119.82 26.2786 119.82 27.2109V32H118.531V26.4531C118.531 25.9896 118.464 25.6042 118.328 25.2969C118.198 24.9896 118 24.7604 117.734 24.6094C117.474 24.4531 117.143 24.375 116.742 24.375C116.174 24.375 115.719 24.4922 115.375 24.7266C115.031 24.9609 114.781 25.3099 114.625 25.7734C114.474 26.2318 114.398 26.7969 114.398 27.4688V32H113.102V23.4375H114.148L114.344 24.6484H114.414C114.586 24.3516 114.802 24.1016 115.062 23.8984C115.323 23.6953 115.615 23.5417 115.938 23.4375C116.26 23.3333 116.604 23.2812 116.969 23.2812C117.62 23.2812 118.164 23.4036 118.602 23.6484C119.044 23.888 119.365 24.2552 119.562 24.75H119.633C119.914 24.2552 120.299 23.888 120.789 23.6484C121.279 23.4036 121.815 23.2812 122.398 23.2812ZM131.211 23.2812C131.94 23.2812 132.565 23.4427 133.086 23.7656C133.607 24.0885 134.005 24.5417 134.281 25.125C134.557 25.7031 134.695 26.3802 134.695 27.1562V27.9609H128.781C128.797 28.9661 129.047 29.7318 129.531 30.2578C130.016 30.7839 130.698 31.0469 131.578 31.0469C132.12 31.0469 132.599 30.9974 133.016 30.8984C133.432 30.7995 133.865 30.6536 134.312 30.4609V31.6016C133.88 31.7943 133.451 31.9349 133.023 32.0234C132.602 32.112 132.102 32.1562 131.523 32.1562C130.701 32.1562 129.982 31.9896 129.367 31.6562C128.758 31.3177 128.284 30.8229 127.945 30.1719C127.607 29.5208 127.438 28.724 127.438 27.7812C127.438 26.8594 127.591 26.0625 127.898 25.3906C128.211 24.7135 128.648 24.1927 129.211 23.8281C129.779 23.4635 130.445 23.2812 131.211 23.2812ZM131.195 24.3438C130.503 24.3438 129.951 24.5703 129.539 25.0234C129.128 25.4766 128.883 26.1094 128.805 26.9219H133.336C133.331 26.4115 133.25 25.9635 133.094 25.5781C132.943 25.1875 132.711 24.8854 132.398 24.6719C132.086 24.4531 131.685 24.3438 131.195 24.3438Z" fill="#333333"/>
<g opacity="0.5">
<path d="M267 36.1431C261.95 36.1431 257.857 32.0497 257.857 27.0003C257.857 21.9508 261.95 17.8574 267 17.8574C272.049 17.8574 276.143 21.9508 276.143 27.0003C276.143 32.0497 272.049 36.1431 267 36.1431Z" stroke="#333333" stroke-linecap="round" stroke-linejoin="round"/>
<path d="M267 23.5718V28.1432H271" stroke="#333333" stroke-linecap="round" stroke-linejoin="round"/>
</g>
</svg>
