<svg width="24" height="23" viewBox="0 0 24 23" fill="none" xmlns="http://www.w3.org/2000/svg">
<path d="M10.2472 13.7601C11.6388 15.1718 13.3227 16.2618 15.1805 16.9534L17.6939 14.9534C17.7684 14.9021 17.8567 14.8746 17.9472 14.8746C18.0377 14.8746 18.126 14.9021 18.2005 14.9534L22.8672 17.9601C23.0444 18.0666 23.1943 18.2128 23.3053 18.3873C23.4162 18.5617 23.485 18.7595 23.5064 18.9652C23.5277 19.1708 23.501 19.3785 23.4282 19.572C23.3555 19.7655 23.2387 19.9394 23.0872 20.0801L20.9005 22.2401C20.5874 22.5495 20.2025 22.7766 19.7802 22.901C19.358 23.0255 18.9114 23.0435 18.4805 22.9534C14.182 22.0656 10.2199 19.9864 7.04719 16.9534C3.94484 13.8902 1.79804 9.99264 0.867188 5.7334C0.775232 5.30916 0.794425 4.86836 0.922905 4.45372C1.05139 4.03908 1.2848 3.66465 1.60052 3.36674L3.86719 1.18007C4.00745 1.03593 4.17851 0.925387 4.36755 0.856722C4.55659 0.788057 4.75872 0.763049 4.9588 0.78357C5.15887 0.80409 5.35171 0.869608 5.52288 0.975217C5.69405 1.08083 5.8391 1.22379 5.94719 1.3934L9.05386 6.00007C9.10744 6.07241 9.13636 6.16005 9.13636 6.25007C9.13636 6.34009 9.10744 6.42773 9.05386 6.50007L7.00719 8.96007C7.71758 10.7807 8.82434 12.4204 10.2472 13.7601Z" fill="#FA8B02"/>
</svg>
