<svg width="25" height="24" viewBox="0 0 25 24" fill="none" xmlns="http://www.w3.org/2000/svg">
<path d="M4.7667 2.83301C3.79424 2.83301 2.86161 3.21932 2.17398 3.90695C1.48634 4.59458 1.10004 5.52721 1.10004 6.49967V6.86818L12.1 12.7917L23.1 6.87001V6.49967C23.1 5.52721 22.7137 4.59458 22.0261 3.90695C21.3385 3.21932 20.4058 2.83301 19.4334 2.83301H4.7667ZM23.1 8.95084L12.5345 14.6397C12.401 14.7116 12.2517 14.7492 12.1 14.7492C11.9484 14.7492 11.7991 14.7116 11.6655 14.6397L1.10004 8.95084V17.4997C1.10004 18.4721 1.48634 19.4048 2.17398 20.0924C2.86161 20.78 3.79424 21.1663 4.7667 21.1663H19.4334C20.4058 21.1663 21.3385 20.78 22.0261 20.0924C22.7137 19.4048 23.1 18.4721 23.1 17.4997V8.95084Z" fill="#FA8B02"/>
</svg>
