<svg width="45" height="44" viewBox="0 0 45 44" fill="none" xmlns="http://www.w3.org/2000/svg">
<path d="M22.8 0.125C10.72 0.125 0.925049 9.91992 0.925049 22C0.925049 34.0801 10.72 43.875 22.8 43.875C34.8801 43.875 44.675 34.0801 44.675 22C44.675 9.91992 34.8801 0.125 22.8 0.125ZM33.3127 16.6143C33.3274 16.8438 33.3274 17.083 33.3274 17.3174C33.3274 24.4854 27.8684 32.7422 17.8928 32.7422C14.8167 32.7422 11.9651 31.8486 9.56274 30.3105C10.0022 30.3594 10.4221 30.3789 10.8713 30.3789C13.4104 30.3789 15.7444 29.5195 17.6047 28.0645C15.2219 28.0156 13.22 26.4531 12.5364 24.3047C13.3713 24.4268 14.1233 24.4268 14.9827 24.207C13.7557 23.9578 12.653 23.2914 11.8617 22.3212C11.0703 21.351 10.6393 20.1368 10.6418 18.8848V18.8164C11.3596 19.2217 12.2043 19.4707 13.0881 19.5049C12.3452 19.0097 11.7359 18.3389 11.3143 17.5519C10.8926 16.7649 10.6717 15.886 10.6711 14.9932C10.6711 13.9824 10.9348 13.0596 11.4084 12.2588C12.7703 13.9352 14.4696 15.3064 16.3961 16.283C18.3225 17.2597 20.4329 17.8201 22.5901 17.9277C21.8235 14.2412 24.5774 11.2578 27.8879 11.2578C29.4504 11.2578 30.8567 11.9121 31.8479 12.9668C33.0735 12.7373 34.2454 12.2783 35.2903 11.6631C34.885 12.918 34.0354 13.9775 32.9075 14.6465C34.0012 14.5293 35.0559 14.2266 36.0325 13.8018C35.2952 14.8857 34.3723 15.8477 33.3127 16.6143Z" fill="#FA8B02"/>
</svg>
