<svg width="45" height="44" viewBox="0 0 45 44" fill="none" xmlns="http://www.w3.org/2000/svg">
<path fill-rule="evenodd" clip-rule="evenodd" d="M0.925049 22C0.925049 9.91992 10.72 0.125 22.8 0.125C34.8801 0.125 44.675 9.91992 44.675 22C44.675 34.0801 34.8801 43.875 22.8 43.875C10.72 43.875 0.925049 34.0801 0.925049 22ZM22.8 11C19.812 11 19.438 11.012 18.265 11.066H18.264C17.094 11.12 16.294 11.306 15.594 11.577C14.8605 11.8534 14.1961 12.2865 13.647 12.846C13.0872 13.3953 12.6538 14.0601 12.377 14.794C12.106 15.494 11.919 16.294 11.866 17.466C11.813 18.638 11.8 19.012 11.8 22C11.8 24.987 11.812 25.361 11.866 26.536C11.92 27.706 12.106 28.506 12.377 29.206C12.6534 29.9399 13.0864 30.6047 13.646 31.154C14.1959 31.7133 14.861 32.146 15.595 32.422C16.295 32.694 17.095 32.881 18.265 32.934C19.438 32.987 19.812 33 22.8 33C25.788 33 26.162 32.988 27.336 32.934C28.506 32.88 29.306 32.694 30.006 32.422C30.739 32.146 31.404 31.714 31.954 31.154C32.5133 30.6042 32.946 29.9391 33.222 29.205C33.494 28.505 33.681 27.705 33.734 26.535C33.787 25.362 33.8 24.988 33.8 22C33.8 19.013 33.788 18.639 33.734 17.464C33.68 16.294 33.494 15.494 33.222 14.794C32.946 14.06 32.514 13.396 31.954 12.847C31.404 12.287 30.739 11.854 30.006 11.577C29.306 11.306 28.5061 11.119 27.334 11.066C26.162 11.013 25.788 11 22.8 11ZM22.8 12.982C25.737 12.982 26.085 12.993 27.245 13.046C28.318 13.095 28.9 13.274 29.288 13.425C29.7658 13.6012 30.198 13.8821 30.553 14.247C30.938 14.632 31.175 14.999 31.375 15.512C31.526 15.9 31.705 16.482 31.754 17.555C31.807 18.715 31.818 19.063 31.818 22C31.818 24.937 31.807 25.285 31.754 26.445C31.705 27.518 31.526 28.1 31.375 28.488C31.199 28.965 30.918 29.398 30.553 29.753C30.168 30.138 29.8011 30.375 29.288 30.575C28.9 30.726 28.318 30.905 27.245 30.954C26.085 31.007 25.738 31.018 22.8 31.018C19.862 31.018 19.515 31.007 18.355 30.954C17.282 30.905 16.7 30.726 16.312 30.575C15.835 30.399 15.402 30.118 15.047 29.753C14.682 29.398 14.401 28.965 14.225 28.488C14.074 28.1 13.895 27.518 13.846 26.445C13.793 25.285 13.782 24.937 13.782 22C13.782 19.063 13.793 18.715 13.846 17.555C13.895 16.482 14.074 15.9 14.225 15.512C14.4012 15.0343 14.6821 14.6021 15.047 14.247C15.432 13.862 15.799 13.625 16.312 13.425C16.7 13.274 17.282 13.095 18.355 13.046C19.515 12.993 19.863 12.982 22.8 12.982ZM23.867 25.5157C23.0534 25.7617 22.1797 25.7176 21.3951 25.391C20.8939 25.1832 20.445 24.8668 20.0808 24.4647C19.7165 24.0626 19.446 23.5847 19.2886 23.0655C19.1312 22.5463 19.0909 21.9986 19.1706 21.462C19.2502 20.9253 19.4479 20.413 19.7494 19.9619C20.0508 19.5107 20.4485 19.1321 20.9139 18.8531C21.3792 18.5742 21.9006 18.4019 22.4405 18.3486C22.9805 18.2954 23.5255 18.3625 24.0364 18.5451C24.5473 18.7278 25.0113 19.0215 25.3951 19.405C25.9971 20.005 26.3721 20.7953 26.4561 21.6411C26.5401 22.4869 26.3279 23.3356 25.8557 24.0422C25.3834 24.7489 24.6805 25.2697 23.867 25.5157ZM20.6363 16.7764C19.9504 17.0605 19.3271 17.477 18.802 18.002C17.7417 19.0623 17.146 20.5005 17.146 22C17.146 23.4995 17.7417 24.9377 18.802 25.998C19.8624 27.0583 21.3005 27.654 22.8 27.654C24.2996 27.654 25.7377 27.0583 26.798 25.998C27.3231 25.473 27.7395 24.8497 28.0237 24.1637C28.3078 23.4777 28.4541 22.7425 28.4541 22C28.4541 21.2575 28.3078 20.5223 28.0237 19.8363C27.7395 19.1503 27.3231 18.527 26.798 18.002C26.273 17.477 25.6497 17.0605 24.9638 16.7764C24.2778 16.4922 23.5425 16.346 22.8 16.346C22.0576 16.346 21.3223 16.4922 20.6363 16.7764ZM30.0144 16.754C29.9423 16.9177 29.8382 17.0653 29.708 17.188C29.455 17.4267 29.1189 17.5574 28.7711 17.5523C28.4233 17.5472 28.0912 17.4068 27.8452 17.1608C27.5992 16.9149 27.4588 16.5827 27.4538 16.2349C27.4487 15.8871 27.5794 15.551 27.818 15.298C27.9408 15.1679 28.0884 15.0637 28.2521 14.9917C28.4158 14.9197 28.5923 14.8812 28.7711 14.8786C28.95 14.876 29.1275 14.9093 29.2932 14.9765C29.459 15.0438 29.6095 15.1436 29.736 15.27C29.8625 15.3965 29.9623 15.5471 30.0295 15.7128C30.0968 15.8785 30.1301 16.0561 30.1275 16.2349C30.1249 16.4138 30.0864 16.5903 30.0144 16.754Z" fill="#FA8B02"/>
</svg>
